<svg aria-hidden="true" style="position: absolute; width: 0; height: 0; overflow: hidden;" version="1.1" xmlns="http://www.w3.org/2000/svg" xmlns:xlink="http://www.w3.org/1999/xlink">
<defs>
<symbol id="icon-location-gas-station" viewBox="0 0 20 20">
<title>location-gas-station</title>
<path d="M13 18h1v2h-14v-2h1v-16c0-1.1 0.9-2 2-2h8c1.105 0 2 0.895 2 2v0 16zM3 2v6h8v-6h-8zM13 10h1c1.105 0 2 0.895 2 2v0 3c0 0.552 0.448 1 1 1s1-0.448 1-1v0-5l-2-2v-2l-2-2 1-1 5 5v7c0 1.657-1.343 3-3 3s-3-1.343-3-3v0-3h-1v-2z"></path>
</symbol>
<symbol id="icon-location" viewBox="0 0 32 32">
<title>location</title>
<path d="M15.938 32c0 0-9.938-14.062-9.938-20.062 0-11.813 9.938-11.938 9.938-11.938s10.062 0.125 10.062 11.875c0 6.187-10.062 20.125-10.062 20.125zM16 6c-2.209 0-4 1.791-4 4s1.791 4 4 4 4-1.791 4-4-1.791-4-4-4z"></path>
</symbol>
<symbol id="icon-key" viewBox="0 0 32 32">
<title>key</title>
<path d="M22 0c-5.523 0-10 4.477-10 10 0 0.626 0.058 1.238 0.168 1.832l-12.168 12.168v6c0 1.105 0.895 2 2 2h2v-2h4v-4h4v-4h4l2.595-2.595c1.063 0.385 2.209 0.595 3.405 0.595 5.523 0 10-4.477 10-10s-4.477-10-10-10zM24.996 10.004c-1.657 0-3-1.343-3-3s1.343-3 3-3 3 1.343 3 3-1.343 3-3 3z"></path>
</symbol>
<symbol id="icon-speed" viewBox="0 0 32 32">
<title>speed</title>
<path d="M16 6.038v-2.038h4v-2c0-1.105-0.895-2-2-2h-6c-1.105 0-2 0.895-2 2v2h4v2.038c-6.712 0.511-12 6.119-12 12.962 0 7.18 5.82 13 13 13s13-5.82 13-13c0-6.843-5.288-12.451-12-12.962zM22.071 26.071c-1.889 1.889-4.4 2.929-7.071 2.929s-5.182-1.040-7.071-2.929c-1.889-1.889-2.929-4.4-2.929-7.071s1.040-5.182 2.929-7.071c1.814-1.814 4.201-2.844 6.754-2.923l-0.677 9.813c-0.058 0.822 0.389 1.181 0.995 1.181s1.053-0.36 0.995-1.181l-0.677-9.813c2.552 0.079 4.94 1.11 6.754 2.923 1.889 1.889 2.929 4.4 2.929 7.071s-1.040 5.182-2.929 7.071z"></path>
</symbol>
<symbol id="icon-map" viewBox="0 0 32 32">
<title>map</title>
<path d="M0 6l10-4v24l-10 4z"></path>
<path d="M12 1l10 6v23l-10-5z"></path>
<path d="M24 7l8-6v24l-8 6z"></path>
</symbol>
<symbol id="icon-home" viewBox="0 0 32 32">
<title>home</title>
<path d="M32 18.451l-16-12.42-16 12.42v-5.064l16-12.42 16 12.42zM28 18v12h-8v-8h-8v8h-8v-12l12-9z"></path>
</symbol>
<symbol id="icon-local_parking" viewBox="0 0 24 24">
<title>local_parking</title>
<path d="M5.016 12.984h13.969l-1.5-4.5h-10.969zM17.484 18q0.609 0 1.055-0.422t0.445-1.078-0.445-1.078-1.055-0.422-1.055 0.422-0.445 1.078 0.445 1.078 1.055 0.422zM6.516 18q0.609 0 1.055-0.422t0.445-1.078-0.445-1.078-1.055-0.422-1.055 0.422-0.445 1.078 0.445 1.078 1.055 0.422zM18.938 8.016l2.063 6v7.969q0 0.422-0.281 0.727t-0.703 0.305h-1.031q-0.422 0-0.703-0.305t-0.281-0.727v-0.984h-12v0.984q0 0.422-0.281 0.727t-0.703 0.305h-1.031q-0.422 0-0.703-0.305t-0.281-0.727v-7.969l2.063-6q0.328-1.031 1.453-1.031h10.969q1.125 0 1.453 1.031zM6.984 5.016q-0.609 0-1.055-0.445t-0.445-1.055q0-0.422 0.375-1.102t0.75-1.148l0.375-0.469q1.5 1.734 1.5 2.719 0 0.609-0.445 1.055t-1.055 0.445zM12 5.016q-0.656 0-1.078-0.445t-0.422-1.055q0-0.422 0.375-1.102t0.75-1.148l0.375-0.469q1.5 1.734 1.5 2.719 0 0.609-0.422 1.055t-1.078 0.445zM17.016 5.016q-0.609 0-1.055-0.445t-0.445-1.055q0-0.422 0.375-1.102t0.75-1.148l0.375-0.469q1.5 1.734 1.5 2.719 0 0.609-0.445 1.055t-1.055 0.445z"></path>
</symbol>
<symbol id="icon-shower" viewBox="0 0 26 24">
<title>shower</title>
<path d="M19.192 3.335c0.174 0.174 0.174 0.442 0 0.616l-8.384 8.384c-0.174 0.174-0.442 0.174-0.616 0l-1.098-1.098c-0.174-0.174-0.174-0.442 0-0.616l0.589-0.589c-1.299-1.634-1.46-3.871-0.469-5.652-0.616-0.589-1.446-0.951-2.357-0.951-1.888 0-3.429 1.54-3.429 3.429v17.143h-3.429v-17.143c0-3.777 3.080-6.857 6.857-6.857 1.929 0 3.67 0.804 4.915 2.089 1.688-0.683 3.643-0.429 5.116 0.737l0.589-0.589c0.174-0.174 0.442-0.174 0.616 0zM18 6.857c0.469 0 0.857 0.388 0.857 0.857s-0.388 0.857-0.857 0.857-0.857-0.388-0.857-0.857 0.388-0.857 0.857-0.857zM21.429 8.571c-0.469 0-0.857-0.388-0.857-0.857s0.388-0.857 0.857-0.857 0.857 0.388 0.857 0.857-0.388 0.857-0.857 0.857zM24.857 6.857c0.469 0 0.857 0.388 0.857 0.857s-0.388 0.857-0.857 0.857-0.857-0.388-0.857-0.857 0.388-0.857 0.857-0.857zM16.286 8.571c0.469 0 0.857 0.388 0.857 0.857s-0.388 0.857-0.857 0.857-0.857-0.388-0.857-0.857 0.388-0.857 0.857-0.857zM18.857 9.429c0-0.469 0.388-0.857 0.857-0.857s0.857 0.388 0.857 0.857-0.388 0.857-0.857 0.857-0.857-0.388-0.857-0.857zM23.143 8.571c0.469 0 0.857 0.388 0.857 0.857s-0.388 0.857-0.857 0.857-0.857-0.388-0.857-0.857 0.388-0.857 0.857-0.857zM14.571 10.286c0.469 0 0.857 0.388 0.857 0.857s-0.388 0.857-0.857 0.857-0.857-0.388-0.857-0.857 0.388-0.857 0.857-0.857zM18 12c-0.469 0-0.857-0.388-0.857-0.857s0.388-0.857 0.857-0.857 0.857 0.388 0.857 0.857-0.388 0.857-0.857 0.857zM21.429 10.286c0.469 0 0.857 0.388 0.857 0.857s-0.388 0.857-0.857 0.857-0.857-0.388-0.857-0.857 0.388-0.857 0.857-0.857zM16.286 13.714c-0.469 0-0.857-0.388-0.857-0.857s0.388-0.857 0.857-0.857 0.857 0.388 0.857 0.857-0.388 0.857-0.857 0.857zM19.714 12c0.469 0 0.857 0.388 0.857 0.857s-0.388 0.857-0.857 0.857-0.857-0.388-0.857-0.857 0.388-0.857 0.857-0.857zM14.571 13.714c0.469 0 0.857 0.388 0.857 0.857s-0.388 0.857-0.857 0.857-0.857-0.388-0.857-0.857 0.388-0.857 0.857-0.857zM18 13.714c0.469 0 0.857 0.388 0.857 0.857s-0.388 0.857-0.857 0.857-0.857-0.388-0.857-0.857 0.388-0.857 0.857-0.857zM16.286 15.429c0.469 0 0.857 0.388 0.857 0.857s-0.388 0.857-0.857 0.857-0.857-0.388-0.857-0.857 0.388-0.857 0.857-0.857zM14.571 17.143c0.469 0 0.857 0.388 0.857 0.857s-0.388 0.857-0.857 0.857-0.857-0.388-0.857-0.857 0.388-0.857 0.857-0.857z"></path>
</symbol>
<symbol id="icon-bed" viewBox="0 0 27 24">
<title>bed</title>
<path d="M3.429 13.714h23.143c0.469 0 0.857 0.388 0.857 0.857v6h-3.429v-3.429h-20.571v3.429h-3.429v-16.286c0-0.469 0.388-0.857 0.857-0.857h1.714c0.469 0 0.857 0.388 0.857 0.857v9.429zM11.143 9.429c0-1.888-1.54-3.429-3.429-3.429s-3.429 1.54-3.429 3.429 1.54 3.429 3.429 3.429 3.429-1.54 3.429-3.429zM27.429 12.857v-0.857c0-2.839-2.304-5.143-5.143-5.143h-9.429c-0.469 0-0.857 0.388-0.857 0.857v5.143h15.429z"></path>
</symbol>
<symbol id="icon-automobile" viewBox="0 0 32 28">
<title>automobile</title>
<path d="M7.5 17c0-1.375-1.125-2.5-2.5-2.5s-2.5 1.125-2.5 2.5 1.125 2.5 2.5 2.5 2.5-1.125 2.5-2.5zM8.062 12h15.875l-1.391-5.578c-0.047-0.172-0.359-0.422-0.547-0.422h-12c-0.187 0-0.5 0.25-0.547 0.422zM29.5 17c0-1.375-1.125-2.5-2.5-2.5s-2.5 1.125-2.5 2.5 1.125 2.5 2.5 2.5 2.5-1.125 2.5-2.5zM32 15.5v6c0 0.281-0.219 0.5-0.5 0.5h-1.5v2c0 1.656-1.344 3-3 3s-3-1.344-3-3v-2h-16v2c0 1.656-1.344 3-3 3s-3-1.344-3-3v-2h-1.5c-0.281 0-0.5-0.219-0.5-0.5v-6c0-1.937 1.563-3.5 3.5-3.5h0.438l1.641-6.547c0.484-1.969 2.391-3.453 4.422-3.453h12c2.031 0 3.938 1.484 4.422 3.453l1.641 6.547h0.438c1.937 0 3.5 1.563 3.5 3.5z"></path>
</symbol>
<symbol id="icon-shower" viewBox="0 0 30 28">
<title>shower</title>
<path d="M22.391 3.891c0.203 0.203 0.203 0.516 0 0.719l-9.781 9.781c-0.203 0.203-0.516 0.203-0.719 0l-1.281-1.281c-0.203-0.203-0.203-0.516 0-0.719l0.688-0.688c-1.516-1.906-1.703-4.516-0.547-6.594-0.719-0.688-1.687-1.109-2.75-1.109-2.203 0-4 1.797-4 4v20h-4v-20c0-4.406 3.594-8 8-8 2.25 0 4.281 0.938 5.734 2.438 1.969-0.797 4.25-0.5 5.969 0.859l0.688-0.688c0.203-0.203 0.516-0.203 0.719 0zM21 8c0.547 0 1 0.453 1 1s-0.453 1-1 1-1-0.453-1-1 0.453-1 1-1zM25 10c-0.547 0-1-0.453-1-1s0.453-1 1-1 1 0.453 1 1-0.453 1-1 1zM29 8c0.547 0 1 0.453 1 1s-0.453 1-1 1-1-0.453-1-1 0.453-1 1-1zM19 10c0.547 0 1 0.453 1 1s-0.453 1-1 1-1-0.453-1-1 0.453-1 1-1zM22 11c0-0.547 0.453-1 1-1s1 0.453 1 1-0.453 1-1 1-1-0.453-1-1zM27 10c0.547 0 1 0.453 1 1s-0.453 1-1 1-1-0.453-1-1 0.453-1 1-1zM17 12c0.547 0 1 0.453 1 1s-0.453 1-1 1-1-0.453-1-1 0.453-1 1-1zM21 14c-0.547 0-1-0.453-1-1s0.453-1 1-1 1 0.453 1 1-0.453 1-1 1zM25 12c0.547 0 1 0.453 1 1s-0.453 1-1 1-1-0.453-1-1 0.453-1 1-1zM19 16c-0.547 0-1-0.453-1-1s0.453-1 1-1 1 0.453 1 1-0.453 1-1 1zM23 14c0.547 0 1 0.453 1 1s-0.453 1-1 1-1-0.453-1-1 0.453-1 1-1zM17 16c0.547 0 1 0.453 1 1s-0.453 1-1 1-1-0.453-1-1 0.453-1 1-1zM21 16c0.547 0 1 0.453 1 1s-0.453 1-1 1-1-0.453-1-1 0.453-1 1-1zM19 18c0.547 0 1 0.453 1 1s-0.453 1-1 1-1-0.453-1-1 0.453-1 1-1zM17 20c0.547 0 1 0.453 1 1s-0.453 1-1 1-1-0.453-1-1 0.453-1 1-1z"></path>
</symbol>
<symbol id="icon-bed" viewBox="0 0 32 28">
<title>bed</title>
<path d="M4 16h27c0.547 0 1 0.453 1 1v7h-4v-4h-24v4h-4v-19c0-0.547 0.453-1 1-1h2c0.547 0 1 0.453 1 1v11zM13 11c0-2.203-1.797-4-4-4s-4 1.797-4 4 1.797 4 4 4 4-1.797 4-4zM32 15v-1c0-3.313-2.688-6-6-6h-11c-0.547 0-1 0.453-1 1v6h18z"></path>
</symbol>
</defs>
</svg>
