<!-- Generated by IcoMoon.io -->
<svg version="1.1" xmlns="http://www.w3.org/2000/svg" width="24" height="24" viewBox="0 0 24 24">
<title>googleplay</title>
<path fill="#607d8b" d="M1.22 0c-0.030 0.093-0.060 0.185-0.060 0.308v23.229c0 0.217 0.061 0.34 0.184 0.463l11.415-12.093-11.539-11.907zM13.529 12.708l2.951 3.045-4.213 2.4s-5.355 3.044-8.308 4.739l9.57-10.184zM14.33 11.877l3.166 3.292c0.496-0.276 4.371-2.492 4.924-2.8 0.584-0.338 0.525-0.8 0.029-1.046-0.459-0.255-4.334-2.475-4.92-2.835l-3.199 3.389zM13.527 11.077l2.984-3.169-4.259-2.431s-6.943-3.972-9.253-5.298l10.528 10.898z"></path>
</svg>
