<!-- Generated by IcoMoon.io -->
<svg version="1.1" xmlns="http://www.w3.org/2000/svg" width="24" height="24" viewBox="0 0 24 24">
<title>mastercard</title>
<path fill="#eb001b" d="M11.343 18.031c0.058 0.049 0.12 0.098 0.181 0.146-1.177 0.783-2.59 1.238-4.107 1.238-4.097 0.001-7.417-3.319-7.417-7.415s3.32-7.416 7.416-7.416c1.518 0 2.931 0.456 4.105 1.238-0.060 0.051-0.12 0.098-0.165 0.15-1.756 1.517-2.761 3.716-2.761 6.028 0 2.311 1.001 4.51 2.748 6.031zM16.584 4.584c-1.52 0-2.931 0.456-4.105 1.238 0.060 0.051 0.12 0.098 0.165 0.15 1.756 1.517 2.761 3.716 2.761 6.028 0 2.31-1.001 4.507-2.748 6.031-0.058 0.049-0.12 0.098-0.181 0.146 1.177 0.783 2.588 1.238 4.107 1.238 4.097 0.001 7.417-3.319 7.417-7.415 0-4.094-3.32-7.416-7.416-7.416zM12 6.174c-0.096 0.075-0.189 0.15-0.28 0.231-1.564 1.359-2.551 3.36-2.551 5.595 0 2.236 0.987 4.236 2.551 5.595 0.090 0.080 0.185 0.158 0.28 0.232 0.096-0.074 0.189-0.152 0.28-0.232 1.563-1.359 2.551-3.359 2.551-5.595 0-2.235-0.987-4.236-2.551-5.595-0.090-0.080-0.184-0.156-0.28-0.231z"></path>
</svg>
