<svg aria-hidden="true" style="position: absolute; width: 0; height: 0; overflow: hidden;" version="1.1" xmlns="http://www.w3.org/2000/svg" xmlns:xlink="http://www.w3.org/1999/xlink">
<defs>
<symbol id="icon-checkmark-outline" viewBox="0 0 20 20">
<title>checkmark-outline</title>
<path d="M2.93 17.070c-1.884-1.821-3.053-4.37-3.053-7.193 0-5.523 4.477-10 10-10 2.823 0 5.372 1.169 7.19 3.050l0.003 0.003c1.737 1.796 2.807 4.247 2.807 6.947 0 5.523-4.477 10-10 10-2.7 0-5.151-1.070-6.95-2.81l0.003 0.003zM15.66 15.66c1.449-1.449 2.344-3.45 2.344-5.66 0-4.421-3.584-8.004-8.004-8.004-2.21 0-4.211 0.896-5.66 2.344v0c-1.449 1.449-2.344 3.45-2.344 5.66 0 4.421 3.584 8.004 8.004 8.004 2.21 0 4.211-0.896 5.66-2.344v0zM6.7 9.29l2.3 2.31 4.3-4.3 1.4 1.42-5.7 5.68-3.7-3.7 1.4-1.42z"></path>
</symbol>
<symbol id="icon-checkmark" viewBox="0 0 20 20">
<title>checkmark</title>
<path d="M0 11l2-2 5 5 11-11 2 2-13 13z"></path>
</symbol>
<symbol id="icon-checkmark-outline1" viewBox="0 0 20 20">
<title>checkmark-outline1</title>
<path d="M2.93 17.070c-1.884-1.821-3.053-4.37-3.053-7.193 0-5.523 4.477-10 10-10 2.823 0 5.372 1.169 7.19 3.050l0.003 0.003c1.737 1.796 2.807 4.247 2.807 6.947 0 5.523-4.477 10-10 10-2.7 0-5.151-1.070-6.95-2.81l0.003 0.003zM15.66 15.66c1.449-1.449 2.344-3.45 2.344-5.66 0-4.421-3.584-8.004-8.004-8.004-2.21 0-4.211 0.896-5.66 2.344v0c-1.449 1.449-2.344 3.45-2.344 5.66 0 4.421 3.584 8.004 8.004 8.004 2.21 0 4.211-0.896 5.66-2.344v0zM6.7 9.29l2.3 2.31 4.3-4.3 1.4 1.42-5.7 5.68-3.7-3.7 1.4-1.42z"></path>
</symbol>
<symbol id="icon-chat" viewBox="0 0 32 32">
<title>chat</title>
<path d="M25.785 4.952h-19.57c-1.235 0-2.236 1.002-2.236 2.236v12.488c0 1.234 1.001 2.236 2.236 2.236h3.729l0.001 5.137 5.704-5.137h10.137c1.236 0 2.236-1.002 2.236-2.236v-12.488c-0.001-1.234-1.001-2.236-2.237-2.236zM10 13.969c-0.553 0-1-0.448-1-1 0-0.553 0.447-1 1-1 0.552 0 1 0.447 1 1 0 0.552-0.448 1-1 1zM14 13.927c-0.553 0-1-0.448-1-1 0-0.553 0.447-1 1-1 0.552 0 1 0.447 1 1 0 0.552-0.448 1-1 1zM18.020 13.948c-0.552 0-1-0.447-1-1 0-0.552 0.448-1 1-1 0.553 0 1 0.448 1 1s-0.448 1-1 1zM22 13.969c-0.553 0-1-0.448-1-1 0-0.553 0.447-1 1-1 0.552 0 1 0.447 1 1 0 0.552-0.448 1-1 1z"></path>
</symbol>
<symbol id="icon-comments" viewBox="0 0 34 32">
<title>comments</title>
<path d="M25.132 13.165c0-5.165-5.627-9.352-12.566-9.352s-12.566 4.187-12.566 9.352c0 3.104 2.032 5.854 5.16 7.555-0.009 0.027-2.492 4.545-2.492 4.545s7.582-2.892 7.603-2.904c0.744 0.103 1.511 0.155 2.295 0.155 6.939 0 12.566-4.187 12.566-9.351zM34.385 16.087c0-5.164-5.297-9.314-11.031-9.351 8.22 8.188-1.461 16.912-9.351 16.912 0 0 0.877 1.79 7.816 1.79 0.783 0 1.551-0.054 2.295-0.156 0.021 0.014 7.604 2.904 7.604 2.904s-2.484-4.517-2.492-4.544c3.127-1.701 5.159-4.452 5.159-7.555z"></path>
</symbol>
<symbol id="icon-speedometer" viewBox="0 0 32 32">
<title>speedometer</title>
<path d="M16-0.034c-8.841 0-16.035 7.192-16.035 16.034s7.194 16.034 16.035 16.034 16.035-7.192 16.035-16.034-7.194-16.034-16.035-16.034zM16 30.966c-8.252 0-14.965-6.714-14.965-14.966s6.713-14.966 14.965-14.966 14.965 6.714 14.965 14.966-6.713 14.966-14.965 14.966zM16.5 6.053c0.305 0 0.553-0.247 0.553-0.553v-2c0-0.306-0.248-0.553-0.553-0.553s-0.553 0.247-0.553 0.553v2c0 0.306 0.248 0.553 0.553 0.553zM5.5 14.947h-2c-0.305 0-0.553 0.247-0.553 0.553s0.248 0.553 0.553 0.553h2c0.305 0 0.553-0.247 0.553-0.553s-0.248-0.553-0.553-0.553zM25.947 15.5c0 0.306 0.248 0.553 0.553 0.553h2c0.305 0 0.553-0.247 0.553-0.553s-0.248-0.553-0.553-0.553h-2c-0.305 0-0.553 0.247-0.553 0.553zM8.575 10.128c0.142 0 0.283-0.054 0.391-0.162 0.216-0.216 0.216-0.565 0-0.781l-1.575-1.576c-0.216-0.217-0.565-0.217-0.781 0s-0.216 0.565 0 0.781l1.575 1.575c0.107 0.109 0.249 0.163 0.39 0.163zM23.891 21.109c-0.216-0.217-0.565-0.217-0.781 0s-0.216 0.565 0 0.781l1.5 1.5c0.108 0.108 0.249 0.162 0.391 0.162s0.283-0.054 0.391-0.162c0.216-0.216 0.216-0.565 0-0.781l-1.501-1.5zM24.891 7.891c0.216-0.216 0.216-0.565 0-0.781s-0.565-0.217-0.781 0l-1.575 1.575c-0.216 0.216-0.216 0.565 0 0.781 0.108 0.108 0.249 0.162 0.391 0.162s0.283-0.054 0.391-0.162l1.574-1.575zM8.609 21.609l-1.5 1.5c-0.216 0.216-0.216 0.565 0 0.781 0.108 0.108 0.249 0.162 0.391 0.162s0.283-0.054 0.391-0.162l1.5-1.5c0.216-0.216 0.216-0.565 0-0.781s-0.566-0.216-0.782 0zM19.5 24h-7c-0.889-0.034-1.535 0.611-1.535 1.5v0.957c0 0.898 0.674 1.603 1.535 1.543h7c0.86 0.060 1.535-0.645 1.535-1.543v-0.957c0-0.889-0.646-1.534-1.535-1.5zM19.965 26.457c0 0.257-0.146 0.534-0.465 0.568h-7c-0.32-0.034-0.465-0.312-0.465-0.025v-0.957c0-0.839 0.169-1.009 0.465-1.043h7c0.296 0.034 0.465 0.204 0.465 0.5v0.957zM16 18.667c0.712 0 1.382-0.277 1.885-0.781 0.911-0.911 1.024-2.32 0.34-3.355l2.653-2.653c0.208-0.209 0.208-0.547 0-0.756-0.209-0.209-0.547-0.209-0.756 0l-2.656 2.656c-1.025-0.655-2.473-0.543-3.351 0.336-1.040 1.040-1.040 2.731 0 3.771 0.503 0.505 1.173 0.782 1.885 0.782zM15.058 15.058c0.251-0.252 0.586-0.391 0.942-0.391s0.691 0.139 0.943 0.391c0.52 0.52 0.52 1.365 0 1.885-0.503 0.504-1.381 0.504-1.885 0-0.52-0.52-0.52-1.366 0-1.885z"></path>
</symbol>
<symbol id="icon-key" viewBox="0 0 32 32">
<title>key</title>
<path d="M18.532 19.468l-4.532 4.532h-3v3h-3v3h-5v-5l10.532-10.532c-0.344-0.924-0.532-1.924-0.532-2.968 0-4.694 3.806-8.5 8.5-8.5s8.5 3.806 8.5 8.5c0 4.694-3.806 8.5-8.5 8.5-1.044 0-2.044-0.188-2.968-0.532v0 0zM13.999 15.501l-9.999 9.999v3.5h3v-3h3v-3h3.5l3.999-3.999c-1.485-0.794-2.706-2.015-3.5-3.5v0 0zM29 11.5c0-4.142-3.358-7.5-7.5-7.5s-7.5 3.358-7.5 7.5c0 4.142 3.358 7.5 7.5 7.5s7.5-3.358 7.5-7.5v0 0zM27 9v0 0c0 1.657-1.343 3-3 3s-3-1.343-3-3c0-1.657 1.343-3 3-3s3 1.343 3 3zM26 9c0-1.105-0.895-2-2-2s-2 0.895-2 2c0 1.105 0.895 2 2 2s2-0.895 2-2v0 0z"></path>
</symbol>
<symbol id="icon-steering-wheel" viewBox="0 0 32 32">
<title>steering-wheel</title>
<path d="M16 0c-8.836 0-16 7.164-16 16s7.164 16 16 16 16-7.164 16-16-7.164-16-16-16zM16 4c5.207 0 9.605 3.354 11.266 8h-22.532c1.661-4.646 6.059-8 11.266-8zM16 18c-1.105 0-2-0.895-2-2s0.895-2 2-2 2 0.895 2 2-0.895 2-2 2zM4 16c5.465 0 9.891 5.266 9.984 11.797-5.656-0.969-9.984-5.871-9.984-11.797zM18.016 27.797c0.093-6.531 4.519-11.797 9.984-11.797 0 5.926-4.328 10.828-9.984 11.797z"></path>
</symbol>
<symbol id="icon-box-add" viewBox="0 0 32 32">
<title>box-add</title>
<path d="M26 2h-20l-6 6v21c0 0.552 0.448 1 1 1h30c0.552 0 1-0.448 1-1v-21l-6-6zM16 26l-10-8h6v-6h8v6h6l-10 8zM4.828 6l2-2h18.343l2 2h-22.343z"></path>
</symbol>
<symbol id="icon-folder-plus" viewBox="0 0 32 32">
<title>folder-plus</title>
<path d="M18 8l-4-4h-14v26h32v-22h-14zM22 22h-4v4h-4v-4h-4v-4h4v-4h4v4h4v4z"></path>
</symbol>
<symbol id="icon-cancel-circle" viewBox="0 0 32 32">
<title>cancel-circle</title>
<path d="M16 0c-8.837 0-16 7.163-16 16s7.163 16 16 16 16-7.163 16-16-7.163-16-16-16zM16 29c-7.18 0-13-5.82-13-13s5.82-13 13-13 13 5.82 13 13-5.82 13-13 13z"></path>
<path d="M21 8l-5 5-5-5-3 3 5 5-5 5 3 3 5-5 5 5 3-3-5-5 5-5z"></path>
</symbol>
<symbol id="icon-map" viewBox="0 0 32 32">
<title>map</title>
<path d="M21 6l-10-4-11 4v24l11-4 10 4 11-4v-24l-11 4zM12 4.554l8 3.2v19.692l-8-3.2v-19.692zM2 7.401l8-2.909v19.744l-8 2.909v-19.744zM30 24.599l-8 2.909v-19.744l8-2.909v19.744z"></path>
</symbol>
<symbol id="icon-map1" viewBox="0 0 32 32">
<title>map1</title>
<path d="M0 6l10-4v24l-10 4z"></path>
<path d="M12 1l10 6v23l-10-5z"></path>
<path d="M24 7l8-6v24l-8 6z"></path>
</symbol>
<symbol id="icon-compass" viewBox="0 0 32 32">
<title>compass</title>
<path d="M17 32c-0.072 0-0.144-0.008-0.217-0.024-0.458-0.102-0.783-0.507-0.783-0.976v-15h-15c-0.469 0-0.875-0.326-0.976-0.783s0.129-0.925 0.553-1.123l30-14c0.381-0.178 0.833-0.098 1.13 0.199s0.377 0.749 0.199 1.13l-14 30c-0.167 0.358-0.524 0.577-0.906 0.577zM5.508 14h11.492c0.552 0 1 0.448 1 1v11.492l10.931-23.423-23.423 10.931z"></path>
</symbol>
<symbol id="icon-location1" viewBox="0 0 32 32">
<title>location1</title>
<path d="M16 0c-5.523 0-10 4.477-10 10 0 10 10 22 10 22s10-12 10-22c0-5.523-4.477-10-10-10zM16 16.125c-3.383 0-6.125-2.742-6.125-6.125s2.742-6.125 6.125-6.125 6.125 2.742 6.125 6.125-2.742 6.125-6.125 6.125zM12.125 10c0-2.14 1.735-3.875 3.875-3.875s3.875 1.735 3.875 3.875c0 2.14-1.735 3.875-3.875 3.875s-3.875-1.735-3.875-3.875z"></path>
</symbol>
<symbol id="icon-location2" viewBox="0 0 32 32">
<title>location2</title>
<path d="M16 0c-5.523 0-10 4.477-10 10 0 10 10 22 10 22s10-12 10-22c0-5.523-4.477-10-10-10zM16 16c-3.314 0-6-2.686-6-6s2.686-6 6-6 6 2.686 6 6-2.686 6-6 6z"></path>
</symbol>
<symbol id="icon-man-woman" viewBox="0 0 32 32">
<title>man-woman</title>
<path d="M8 3c0 1.657-1.343 3-3 3s-3-1.343-3-3c0-1.657 1.343-3 3-3s3 1.343 3 3z"></path>
<path d="M26 3c0 1.657-1.343 3-3 3s-3-1.343-3-3c0-1.657 1.343-3 3-3s3 1.343 3 3z"></path>
<path d="M8 8h-6c-1.105 0-2 0.895-2 2v10h2v12h2.5v-12h1v12h2.5v-12h2v-10c0-1.105-0.895-2-2-2z"></path>
<path d="M30.469 16l1.531-1.109-4.165-6.441c-0.185-0.281-0.499-0.45-0.835-0.45h-8c-0.336 0-0.65 0.169-0.835 0.45l-4.165 6.441 1.531 1.109 3.458-4.487 1.202 2.804-4.191 7.683h3.833l0.667 10h2v-10h1v10h2l0.667-10h3.833l-4.191-7.683 1.202-2.804 3.458 4.487z"></path>
</symbol>
<symbol id="icon-check-circle" viewBox="0 0 24 24">
<title>check-circle</title>
<path d="M21 11.080v0.92c-0.001 1.22-0.244 2.382-0.683 3.441-0.456 1.1-1.126 2.091-1.957 2.921s-1.823 1.498-2.924 1.953c-1.059 0.438-2.221 0.68-3.442 0.679s-2.382-0.244-3.441-0.683c-1.1-0.456-2.091-1.126-2.921-1.957s-1.498-1.823-1.953-2.924c-0.438-1.058-0.68-2.22-0.679-3.441s0.244-2.382 0.683-3.441c0.456-1.1 1.126-2.091 1.957-2.921s1.823-1.498 2.924-1.953c1.059-0.438 2.221-0.68 3.442-0.679 1.33 0.001 2.586 0.289 3.649 0.775 0.502 0.23 1.096 0.008 1.325-0.494s0.008-1.096-0.494-1.325c-1.327-0.606-2.866-0.955-4.479-0.956-1.488-0.001-2.91 0.294-4.207 0.831-1.348 0.556-2.56 1.373-3.574 2.386s-1.832 2.223-2.39 3.57c-0.538 1.297-0.835 2.718-0.836 4.206s0.294 2.91 0.831 4.207c0.557 1.347 1.374 2.559 2.386 3.573s2.223 1.832 3.57 2.39c1.297 0.538 2.718 0.835 4.206 0.836s2.91-0.294 4.207-0.831c1.347-0.557 2.559-1.374 3.573-2.386s1.832-2.223 2.39-3.57c0.539-1.297 0.836-2.718 0.837-4.207v-0.92c0-0.552-0.448-1-1-1s-1 0.448-1 1zM21.293 3.293l-9.293 9.302-2.293-2.292c-0.391-0.391-1.024-0.391-1.414 0s-0.391 1.024 0 1.414l3 3c0.391 0.391 1.024 0.39 1.415 0l10-10.010c0.39-0.391 0.39-1.024-0.001-1.414s-1.024-0.39-1.414 0.001z"></path>
</symbol>
<symbol id="icon-crop" viewBox="0 0 24 24">
<title>crop</title>
<path d="M7.077 7.077l8.932-0.077c0.129 0 0.257 0.027 0.373 0.075 0.122 0.050 0.232 0.125 0.325 0.218s0.167 0.203 0.218 0.325c0.048 0.116 0.075 0.245 0.075 0.382v9h-9c-0.137 0-0.266-0.027-0.382-0.075-0.122-0.050-0.232-0.125-0.325-0.218s-0.167-0.203-0.218-0.325c-0.048-0.116-0.075-0.245-0.075-0.373zM1.009 7.13l4.068-0.035-0.077 8.896c0 0.413 0.081 0.801 0.228 1.156 0.152 0.368 0.375 0.698 0.651 0.974s0.606 0.499 0.974 0.651c0.354 0.147 0.742 0.228 1.147 0.228h9v4c0 0.552 0.448 1 1 1s1-0.448 1-1v-4h4c0.552 0 1-0.448 1-1s-0.448-1-1-1h-4v-9c0-0.405-0.081-0.793-0.228-1.148-0.152-0.368-0.375-0.698-0.651-0.974s-0.606-0.499-0.974-0.651c-0.354-0.146-0.742-0.227-1.156-0.227l-8.896 0.077 0.035-4.068c0.005-0.553-0.439-1.004-0.991-1.009s-1.004 0.439-1.009 0.991l-0.036 4.103-4.103 0.036c-0.552 0.005-0.996 0.456-0.991 1.009s0.456 0.996 1.009 0.991z"></path>
</symbol>
<symbol id="icon-americanexpress" viewBox="0 0 24 24">
<title>americanexpress</title>
<path fill="#2e77bc" style="fill: var(--color1, #2e77bc)" d="M16.015 14.378c0-0.32-0.135-0.496-0.344-0.622-0.21-0.12-0.464-0.135-0.81-0.135h-1.543v2.82h0.675v-1.027h0.72c0.24 0 0.39 0.024 0.478 0.125 0.12 0.13 0.104 0.38 0.104 0.55v0.35h0.66v-0.555c-0.002-0.25-0.017-0.376-0.108-0.516-0.060-0.080-0.18-0.18-0.33-0.234l0.020-0.008c0.18-0.072 0.48-0.297 0.48-0.747zM15.145 14.785l-0.028-0.002c-0.090 0.053-0.195 0.058-0.33 0.058h-0.81v-0.63h0.824c0.12 0 0.24 0 0.33 0.050 0.098 0.048 0.156 0.147 0.15 0.255 0 0.12-0.045 0.215-0.134 0.27zM20.297 15.837h-1.297v0.6h1.304c0.676 0 1.050-0.278 1.050-0.884 0-0.28-0.066-0.448-0.187-0.582-0.153-0.133-0.392-0.193-0.73-0.207l-0.376-0.015c-0.104 0-0.18 0-0.255-0.030-0.090-0.030-0.15-0.105-0.15-0.21 0-0.090 0.017-0.166 0.090-0.21 0.083-0.046 0.177-0.066 0.272-0.060h1.23v-0.602h-1.35c-0.704 0-0.958 0.437-0.958 0.84 0 0.9 0.776 0.855 1.407 0.87 0.104 0 0.18 0.015 0.225 0.060 0.046 0.030 0.082 0.106 0.082 0.18 0 0.077-0.035 0.15-0.080 0.18-0.060 0.053-0.15 0.070-0.277 0.070z"></path>
<path fill="#2e77bc" style="fill: var(--color1, #2e77bc)" d="M0 0v10.096l0.81-1.876h1.75l0.225 0.464v-0.464h2.043l0.45 1.020 0.437-1.013h6.502c0.295 0 0.56 0.057 0.756 0.236v-0.23h1.787v0.23c0.307-0.17 0.686-0.23 1.12-0.23h2.606l0.24 0.466v-0.466h1.918l0.254 0.465v-0.466h1.858v3.948h-1.886l-0.36-0.6v0.585h-2.353l-0.256-0.63h-0.583l-0.27 0.614h-1.213c-0.48 0-0.84-0.104-1.080-0.24v0.24h-2.89v-0.884c0-0.12-0.030-0.12-0.105-0.135h-0.105v1.036h-5.588v-0.48l-0.21 0.48h-1.167l-0.202-0.48v0.465h-2.253l-0.256-0.624h-0.579l-0.256 0.624h-1.144v11.849h23.786v-7.108c-0.27 0.135-0.613 0.18-0.973 0.18h-1.723v-0.255c-0.21 0.165-0.57 0.255-0.914 0.255h-5.466v-0.9c0-0.12-0.018-0.12-0.12-0.12h-0.075v1.022h-1.8v-1.066c-0.298 0.136-0.643 0.15-0.928 0.136h-0.214v0.915h-2.18l-0.54-0.617-0.57 0.6h-3.541v-3.93h3.61l0.518 0.602 0.554-0.6h2.412c0.28 0 0.74 0.030 0.942 0.225v-0.24h2.177c0.202 0 0.644 0.045 0.903 0.225v-0.24h3.265v0.24c0.163-0.164 0.508-0.24 0.803-0.24h1.89v0.24c0.194-0.15 0.464-0.24 0.84-0.24h1.176v-13.084h-23.832z"></path>
<path fill="#2e77bc" style="fill: var(--color1, #2e77bc)" d="M21.156 14.955c0.004 0.005 0.006 0.012 0.010 0.016 0.010 0.010 0.024 0.010 0.032 0.020l-0.042-0.035zM23.828 13.082h0.065v0.555h-0.065z"></path>
<path fill="#2e77bc" style="fill: var(--color1, #2e77bc)" d="M23.865 15.030v-0.005c-0.030-0.025-0.046-0.048-0.075-0.070-0.15-0.153-0.39-0.215-0.764-0.225l-0.36-0.012c-0.12 0-0.194-0.007-0.27-0.030-0.090-0.030-0.15-0.105-0.15-0.21 0-0.090 0.030-0.16 0.090-0.204 0.076-0.045 0.15-0.050 0.27-0.050h1.223v-0.588h-1.283c-0.69 0-0.96 0.437-0.96 0.84 0 0.9 0.78 0.855 1.41 0.87 0.104 0 0.18 0.015 0.224 0.060 0.046 0.030 0.076 0.106 0.076 0.18 0 0.070-0.034 0.138-0.090 0.18-0.045 0.056-0.136 0.070-0.27 0.070h-1.288v0.605h1.287c0.42 0 0.734-0.118 0.9-0.36h0.030c0.090-0.134 0.135-0.3 0.135-0.523 0-0.24-0.045-0.39-0.135-0.526zM18.597 14.208v-0.583h-2.235v2.833h2.235v-0.585h-1.57v-0.57h1.533v-0.584h-1.532v-0.51zM13.51 8.787h0.685v2.813h-0.684zM13.126 9.543l-0.007 0.006c0-0.314-0.13-0.5-0.34-0.624-0.217-0.125-0.47-0.135-0.81-0.135h-1.539v2.82h0.674v-1.034h0.72c0.24 0 0.39 0.030 0.487 0.12 0.122 0.136 0.107 0.378 0.107 0.548v0.354h0.677v-0.553c0-0.25-0.016-0.375-0.11-0.516-0.090-0.107-0.202-0.19-0.33-0.237 0.172-0.070 0.472-0.3 0.472-0.75zM12.271 9.939h-0.015c-0.090 0.054-0.195 0.056-0.33 0.056h-0.826v-0.623h0.825c0.12 0 0.24 0.004 0.33 0.050 0.090 0.040 0.15 0.128 0.15 0.25s-0.047 0.22-0.134 0.266zM15.92 9.373h0.632v-0.6h-0.644c-0.464 0-0.804 0.105-1.020 0.33-0.286 0.3-0.362 0.69-0.362 1.11 0 0.512 0.123 0.833 0.36 1.074 0.232 0.238 0.645 0.31 0.97 0.31h0.78l0.255-0.627h1.39l0.262 0.627h1.36v-2.11l1.272 2.11h0.95l0.002 0.002v-2.813h-0.684v1.963l-1.18-1.96h-1.020v2.611l-1.133-2.656h-1.004l-0.943 2.22h-0.3c-0.177 0-0.362-0.030-0.468-0.134-0.125-0.15-0.186-0.36-0.186-0.662 0-0.285 0.080-0.51 0.194-0.63 0.133-0.135 0.272-0.165 0.516-0.165zM17.588 9.265l0.464 1.118v0.002h-0.93l0.466-1.12zM2.38 10.97l0.254 0.628h1.366v-2.205l0.972 2.205h0.584l0.973-2.202 0.015 2.202h0.69v-2.81h-1.116l-0.807 1.904-0.876-1.905h-1.092v2.663l-1.138-2.663h-0.997l-1.198 2.81h0.72l0.26-0.626h1.39zM1.692 9.265l0.46 1.118-0.003 0.002h-0.915l0.457-1.12zM11.856 13.62h-2.142l-0.85 0.923-0.825-0.922h-2.693v2.82h2.654l0.855-0.932 0.824 0.93h1.302v-0.94h0.838c0.6 0 1.17-0.164 1.17-0.945l-0.006-0.003c0-0.78-0.598-0.93-1.128-0.93zM7.67 15.853l-0.014-0.002h-1.636v-0.557h1.47v-0.574h-1.47v-0.51h1.68l0.733 0.82-0.764 0.824zM10.312 16.183l-1.030-1.147 1.030-1.108v2.253zM11.865 14.925h-0.885v-0.717h0.885c0.24 0 0.42 0.098 0.42 0.344 0 0.243-0.15 0.372-0.42 0.372zM9.967 9.373v-0.586h-2.237v2.813h2.237v-0.58h-1.567v-0.564h1.527v-0.576h-1.527v-0.507z"></path>
</symbol>
<symbol id="icon-mastercard" viewBox="0 0 24 24">
<title>mastercard</title>
<path fill="#eb001b" style="fill: var(--color2, #eb001b)" d="M11.343 18.031c0.058 0.049 0.12 0.098 0.181 0.146-1.177 0.783-2.59 1.238-4.107 1.238-4.097 0.001-7.417-3.319-7.417-7.415s3.32-7.416 7.416-7.416c1.518 0 2.931 0.456 4.105 1.238-0.060 0.051-0.12 0.098-0.165 0.15-1.756 1.517-2.761 3.716-2.761 6.028 0 2.311 1.001 4.51 2.748 6.031zM16.584 4.584c-1.52 0-2.931 0.456-4.105 1.238 0.060 0.051 0.12 0.098 0.165 0.15 1.756 1.517 2.761 3.716 2.761 6.028 0 2.31-1.001 4.507-2.748 6.031-0.058 0.049-0.12 0.098-0.181 0.146 1.177 0.783 2.588 1.238 4.107 1.238 4.097 0.001 7.417-3.319 7.417-7.415 0-4.094-3.32-7.416-7.416-7.416zM12 6.174c-0.096 0.075-0.189 0.15-0.28 0.231-1.564 1.359-2.551 3.36-2.551 5.595 0 2.236 0.987 4.236 2.551 5.595 0.090 0.080 0.185 0.158 0.28 0.232 0.096-0.074 0.189-0.152 0.28-0.232 1.563-1.359 2.551-3.359 2.551-5.595 0-2.235-0.987-4.236-2.551-5.595-0.090-0.080-0.184-0.156-0.28-0.231z"></path>
</symbol>
<symbol id="icon-visa" viewBox="0 0 24 24">
<title>visa</title>
<path fill="#142787" style="fill: var(--color3, #142787)" d="M17.445 8.623c-0.387-0.146-0.99-0.301-1.74-0.301-1.92 0-3.275 0.968-3.285 2.355-0.012 1.020 0.964 1.594 1.701 1.936 0.757 0.35 1.010 0.57 1.008 0.885-0.005 0.477-0.605 0.693-1.162 0.693-0.766 0-1.186-0.107-1.831-0.375l-0.239-0.111-0.271 1.598c0.466 0.195 1.306 0.362 2.175 0.375 2.041 0 3.375-0.961 3.391-2.439 0.016-0.813-0.51-1.43-1.621-1.938-0.674-0.33-1.094-0.551-1.094-0.886 0-0.296 0.359-0.612 1.109-0.612 0.645-0.010 1.096 0.129 1.455 0.273l0.18 0.081 0.271-1.544-0.047 0.010zM22.428 8.453h-1.5c-0.467 0-0.816 0.127-1.021 0.591l-2.885 6.534h2.041l0.408-1.070 2.49 0.002c0.061 0.25 0.24 1.068 0.24 1.068h1.799l-1.572-7.125zM9.66 8.393h1.943l-1.215 7.129h-1.944l1.216-7.131v0.002zM4.721 12.322l0.202 0.99 1.901-4.859h2.059l-3.061 7.115h-2.054l-1.68-6.026c-0.035-0.103-0.078-0.173-0.18-0.237-0.568-0.297-1.203-0.539-1.908-0.707l0.025-0.15h3.131c0.424 0.016 0.766 0.15 0.883 0.604l0.682 3.273v-0.003zM20.029 13.049l0.775-1.994c-0.010 0.020 0.16-0.412 0.258-0.68l0.133 0.615 0.449 2.057h-1.615v0.002z"></path>
</symbol>
<symbol id="icon-googlepodcasts" viewBox="0 0 24 24">
<title>googlepodcasts</title>
<path fill="#4285f4" style="fill: var(--color4, #4285f4)" d="M10.5 7.636v8.727h3v-8.727zM3 11.182c-0 0.828-0.672 1.5-1.5 1.5s-1.5-0.672-1.5-1.5c0-0 0-0 0-0.001v0c0-0.828 0.672-1.5 1.5-1.5s1.5 0.672 1.5 1.5c0 0 0 0 0 0.001v-0z"></path>
<path fill="#4285f4" style="fill: var(--color4, #4285f4)" d="M3 12.818c-0 0.828-0.672 1.5-1.5 1.5s-1.5-0.672-1.5-1.5c0-0 0-0 0-0.001v0c0-0.828 0.672-1.5 1.5-1.5s1.5 0.672 1.5 1.5c0 0 0 0 0 0.001v-0z"></path>
<path fill="#4285f4" style="fill: var(--color4, #4285f4)" d="M0 11.182h3v1.636h-3v-1.636zM24 12.818c-0 0.828-0.672 1.5-1.5 1.5s-1.5-0.672-1.5-1.5c0-0 0-0 0-0.001v0c0-0.828 0.672-1.5 1.5-1.5s1.5 0.672 1.5 1.5c0 0 0 0 0 0.001v-0z"></path>
<path fill="#4285f4" style="fill: var(--color4, #4285f4)" d="M24 11.182c-0 0.828-0.672 1.5-1.5 1.5s-1.5-0.672-1.5-1.5c0-0 0-0 0-0.001v0c0-0.828 0.672-1.5 1.5-1.5s1.5 0.672 1.5 1.5c0 0 0 0 0 0.001v-0z"></path>
<path fill="#4285f4" style="fill: var(--color4, #4285f4)" d="M24 12.818h-3v-1.636h3v1.636zM8.182 16.091c-0 0.828-0.672 1.5-1.5 1.5s-1.5-0.672-1.5-1.5c0-0 0-0 0-0.001v0c0-0.828 0.672-1.5 1.5-1.5s1.5 0.672 1.5 1.5c0 0 0 0 0 0.001v-0z"></path>
<path fill="#4285f4" style="fill: var(--color4, #4285f4)" d="M8.182 17.727c-0 0.828-0.672 1.5-1.5 1.5s-1.5-0.672-1.5-1.5c0-0 0-0 0-0.001v0c0-0.828 0.672-1.5 1.5-1.5s1.5 0.672 1.5 1.5c0 0 0 0 0 0.001v-0z"></path>
<path fill="#4285f4" style="fill: var(--color4, #4285f4)" d="M5.182 16.091h3v1.636h-3v-1.636zM8.182 6.273c-0 0.828-0.672 1.5-1.5 1.5s-1.5-0.672-1.5-1.5c0-0 0-0 0-0.001v0c0-0.828 0.672-1.5 1.5-1.5s1.5 0.672 1.5 1.5c0 0 0 0 0 0.001v-0zM8.182 11.591c-0 0.828-0.672 1.5-1.5 1.5s-1.5-0.672-1.5-1.5c0-0 0-0 0-0.001v0c0-0.828 0.672-1.5 1.5-1.5s1.5 0.672 1.5 1.5c0 0 0 0 0 0.001v-0z"></path>
<path fill="#4285f4" style="fill: var(--color4, #4285f4)" d="M5.182 6.273h3v5.352h-3v-5.352zM18.818 7.909c-0 0.828-0.672 1.5-1.5 1.5s-1.5-0.672-1.5-1.5c0-0 0-0 0-0.001v0c0-0.828 0.672-1.5 1.5-1.5s1.5 0.672 1.5 1.5c0 0 0 0 0 0.001v-0z"></path>
<path fill="#4285f4" style="fill: var(--color4, #4285f4)" d="M18.818 6.273c-0 0.828-0.672 1.5-1.5 1.5s-1.5-0.672-1.5-1.5c0-0 0-0 0-0.001v0c0-0.828 0.672-1.5 1.5-1.5s1.5 0.672 1.5 1.5c0 0 0 0 0 0.001v-0z"></path>
<path fill="#4285f4" style="fill: var(--color4, #4285f4)" d="M18.818 7.909h-3v-1.636h3v1.636zM13.5 3.136c-0 0.828-0.672 1.5-1.5 1.5s-1.5-0.672-1.5-1.5c0-0 0-0 0-0.001v0c0-0.828 0.672-1.5 1.5-1.5s1.5 0.672 1.5 1.5c0 0 0 0 0 0.001v-0z"></path>
<path fill="#4285f4" style="fill: var(--color4, #4285f4)" d="M13.5 1.5c-0 0.828-0.672 1.5-1.5 1.5s-1.5-0.672-1.5-1.5c0-0 0-0 0-0.001v0c0-0.828 0.672-1.5 1.5-1.5s1.5 0.672 1.5 1.5c0 0 0 0 0 0.001v-0z"></path>
<path fill="#4285f4" style="fill: var(--color4, #4285f4)" d="M13.5 3.136h-3v-1.636h3v1.636zM13.5 22.5c-0 0.828-0.672 1.5-1.5 1.5s-1.5-0.672-1.5-1.5c0-0 0-0 0-0.001v0c0-0.828 0.672-1.5 1.5-1.5s1.5 0.672 1.5 1.5c0 0 0 0 0 0.001v-0z"></path>
<path fill="#4285f4" style="fill: var(--color4, #4285f4)" d="M13.5 20.864c-0 0.828-0.672 1.5-1.5 1.5s-1.5-0.672-1.5-1.5c0-0 0-0 0-0.001v0c0-0.828 0.672-1.5 1.5-1.5s1.5 0.672 1.5 1.5c0 0 0 0 0 0.001v-0z"></path>
<path fill="#4285f4" style="fill: var(--color4, #4285f4)" d="M13.5 22.5h-3v-1.636h3v1.636zM18.818 17.727c-0 0.828-0.672 1.5-1.5 1.5s-1.5-0.672-1.5-1.5c0-0 0-0 0-0.001v0c0-0.828 0.672-1.5 1.5-1.5s1.5 0.672 1.5 1.5c0 0 0 0 0 0.001v-0zM18.818 12.409c-0 0.828-0.672 1.5-1.5 1.5s-1.5-0.672-1.5-1.5c0-0 0-0 0-0.001v0c0-0.828 0.672-1.5 1.5-1.5s1.5 0.672 1.5 1.5c0 0 0 0 0 0.001v-0z"></path>
<path fill="#4285f4" style="fill: var(--color4, #4285f4)" d="M18.818 17.727h-3v-5.318h3v5.318zM13.5 7.636c-0 0.828-0.672 1.5-1.5 1.5s-1.5-0.672-1.5-1.5c0-0 0-0 0-0.001v0c0-0.828 0.672-1.5 1.5-1.5s1.5 0.672 1.5 1.5c0 0 0 0 0 0.001v-0zM13.5 16.364c-0 0.828-0.672 1.5-1.5 1.5s-1.5-0.672-1.5-1.5c0-0 0-0 0-0.001v0c0-0.828 0.672-1.5 1.5-1.5s1.5 0.672 1.5 1.5c0 0 0 0 0 0.001v-0z"></path>
</symbol>
<symbol id="icon-googleplay" viewBox="0 0 24 24">
<title>googleplay</title>
<path fill="#607d8b" style="fill: var(--color5, #607d8b)" d="M1.22 0c-0.030 0.093-0.060 0.185-0.060 0.308v23.229c0 0.217 0.061 0.34 0.184 0.463l11.415-12.093-11.539-11.907zM13.529 12.708l2.951 3.045-4.213 2.4s-5.355 3.044-8.308 4.739l9.57-10.184zM14.33 11.877l3.166 3.292c0.496-0.276 4.371-2.492 4.924-2.8 0.584-0.338 0.525-0.8 0.029-1.046-0.459-0.255-4.334-2.475-4.92-2.835l-3.199 3.389zM13.527 11.077l2.984-3.169-4.259-2.431s-6.943-3.972-9.253-5.298l10.528 10.898z"></path>
</symbol>
<symbol id="icon-google" viewBox="0 0 24 24">
<title>google</title>
<path fill="#4285f4" style="fill: var(--color4, #4285f4)" d="M12.24 10.285v4.115h6.806c-0.275 1.765-2.056 5.174-6.806 5.174-4.095 0-7.439-3.389-7.439-7.574s3.345-7.574 7.439-7.574c2.33 0 3.891 0.989 4.785 1.849l3.254-3.138c-2.090-1.951-4.8-3.137-8.039-3.137-6.635 0-12 5.365-12 12s5.365 12 12 12c6.926 0 11.52-4.869 11.52-11.726 0-0.788-0.085-1.39-0.189-1.989h-11.331z"></path>
</symbol>
<symbol id="icon-comment1" viewBox="0 0 24 24">
<title>comment1</title>
<path d="M18 8.016v-2.016h-12v2.016h12zM18 11.016v-2.016h-12v2.016h12zM18 14.016v-2.016h-12v2.016h12zM21.984 3.984v18l-3.984-3.984h-14.016c-1.078 0-1.969-0.938-1.969-2.016v-12c0-1.078 0.891-1.969 1.969-1.969h16.031c1.078 0 1.969 0.891 1.969 1.969z"></path>
</symbol>
<symbol id="icon-local_gas_station" viewBox="0 0 24 24">
<title>local_gas_station</title>
<path d="M18 9.984c0.563 0 0.984-0.422 0.984-0.984s-0.422-0.984-0.984-0.984-0.984 0.422-0.984 0.984 0.422 0.984 0.984 0.984zM12 9.984v-4.969h-6v4.969h6zM19.781 7.219c0.469 0.469 0.703 1.078 0.703 1.781v9.516c0 1.359-1.125 2.484-2.484 2.484s-2.484-1.125-2.484-2.484v-5.016h-1.5v7.5h-10.031v-15.984c0-1.078 0.938-2.016 2.016-2.016h6c1.078 0 2.016 0.938 2.016 2.016v6.984h0.984c1.078 0 2.016 0.938 2.016 2.016v4.5c0 0.563 0.422 0.984 0.984 0.984s0.984-0.422 0.984-0.984v-7.219c-0.328 0.141-0.609 0.188-0.984 0.188-1.359 0-2.484-1.125-2.484-2.484 0-1.078 0.656-1.969 1.594-2.344l-2.109-2.109 1.078-1.031z"></path>
</symbol>
<symbol id="icon-local_parking" viewBox="0 0 24 24">
<title>local_parking</title>
<path d="M13.219 11.016c1.078 0 1.969-0.938 1.969-2.016s-0.891-2.016-1.969-2.016h-3.234v4.031h3.234zM12.984 3c3.328 0 6 2.672 6 6s-2.672 6-6 6h-3v6h-3.984v-18h6.984z"></path>
</symbol>
<symbol id="icon-crop_landscape" viewBox="0 0 24 24">
<title>crop_landscape</title>
<path d="M18.984 17.016v-10.031h-13.969v10.031h13.969zM18.984 5.016c1.078 0 2.016 0.891 2.016 1.969v10.031c0 1.078-0.938 1.969-2.016 1.969h-13.969c-1.078 0-2.016-0.891-2.016-1.969v-10.031c0-1.078 0.938-1.969 2.016-1.969h13.969z"></path>
</symbol>
<symbol id="icon-search" viewBox="0 0 26 28">
<title>search</title>
<path d="M18 13c0-3.859-3.141-7-7-7s-7 3.141-7 7 3.141 7 7 7 7-3.141 7-7zM26 26c0 1.094-0.906 2-2 2-0.531 0-1.047-0.219-1.406-0.594l-5.359-5.344c-1.828 1.266-4.016 1.937-6.234 1.937-6.078 0-11-4.922-11-11s4.922-11 11-11 11 4.922 11 11c0 2.219-0.672 4.406-1.937 6.234l5.359 5.359c0.359 0.359 0.578 0.875 0.578 1.406z"></path>
</symbol>
<symbol id="icon-cart-arrow-down" viewBox="0 0 26 28">
<title>cart-arrow-down</title>
<path d="M20 11c0-0.547-0.453-1-1-1-0.266 0-0.516 0.109-0.703 0.297l-2.297 2.281v-4.578c0-0.547-0.453-1-1-1s-1 0.453-1 1v4.578l-2.297-2.281c-0.187-0.187-0.438-0.297-0.703-0.297-0.547 0-1 0.453-1 1 0 0.266 0.109 0.516 0.297 0.703l4 4c0.187 0.187 0.438 0.297 0.703 0.297s0.516-0.109 0.703-0.297l4-4c0.187-0.187 0.297-0.438 0.297-0.703zM10 24c0 1.109-0.891 2-2 2s-2-0.891-2-2 0.891-2 2-2 2 0.891 2 2zM24 24c0 1.109-0.891 2-2 2s-2-0.891-2-2 0.891-2 2-2 2 0.891 2 2zM26 7v8c0 0.5-0.375 0.938-0.891 1l-16.312 1.906c0.063 0.344 0.203 0.734 0.203 1.094s-0.219 0.688-0.375 1h14.375c0.547 0 1 0.453 1 1s-0.453 1-1 1h-16c-0.547 0-1-0.453-1-1 0-0.484 0.734-1.687 0.953-2.141l-2.766-12.859h-3.187c-0.547 0-1-0.453-1-1s0.453-1 1-1h4c1.062 0 1.078 1.25 1.234 2h18.766c0.547 0 1 0.453 1 1z"></path>
</symbol>
<symbol id="icon-shopping-cart" viewBox="0 0 26 28">
<title>shopping-cart</title>
<path d="M10 24c0 1.094-0.906 2-2 2s-2-0.906-2-2 0.906-2 2-2 2 0.906 2 2zM24 24c0 1.094-0.906 2-2 2s-2-0.906-2-2 0.906-2 2-2 2 0.906 2 2zM26 7v8c0 0.5-0.391 0.938-0.891 1l-16.312 1.906c0.078 0.359 0.203 0.719 0.203 1.094 0 0.359-0.219 0.688-0.375 1h14.375c0.547 0 1 0.453 1 1s-0.453 1-1 1h-16c-0.547 0-1-0.453-1-1 0-0.484 0.703-1.656 0.953-2.141l-2.766-12.859h-3.187c-0.547 0-1-0.453-1-1s0.453-1 1-1h4c1.047 0 1.078 1.25 1.234 2h18.766c0.547 0 1 0.453 1 1z"></path>
</symbol>
<symbol id="icon-line-chart" viewBox="0 0 32 28">
<title>line-chart</title>
<path d="M32 24v2h-32v-24h2v22h30zM30 4.5v6.797c0 0.438-0.531 0.672-0.859 0.344l-1.891-1.891-9.891 9.891c-0.203 0.203-0.516 0.203-0.719 0l-3.641-3.641-6.5 6.5-3-3 9.141-9.141c0.203-0.203 0.516-0.203 0.719 0l3.641 3.641 7.25-7.25-1.891-1.891c-0.328-0.328-0.094-0.859 0.344-0.859h6.797c0.281 0 0.5 0.219 0.5 0.5z"></path>
</symbol>
<symbol id="icon-area-chart" viewBox="0 0 32 28">
<title>area-chart</title>
<path d="M32 24v2h-32v-24h2v22h30zM26 8l4 14h-26v-9l7-9 9 9z"></path>
</symbol>
<symbol id="icon-bar-chart" viewBox="0 0 32 28">
<title>bar-chart</title>
<path d="M10 14v8h-4v-8h4zM16 6v16h-4v-16h4zM32 24v2h-32v-24h2v22h30zM22 10v12h-4v-12h4zM28 4v18h-4v-18h4z"></path>
</symbol>
<symbol id="icon-pie-chart" viewBox="0 0 27 28">
<title>pie-chart</title>
<path d="M12 13.906l8.531 8.531c-2.172 2.203-5.203 3.563-8.531 3.563-6.625 0-12-5.375-12-12s5.375-12 12-12v11.906zM14.922 14h12.078c0 3.328-1.359 6.359-3.563 8.531zM26 12h-12v-12c6.625 0 12 5.375 12 12z"></path>
</symbol>
<symbol id="icon-bell-o" viewBox="0 0 28 28">
<title>bell-o</title>
<path d="M14.25 26.5c0-0.141-0.109-0.25-0.25-0.25-1.234 0-2.25-1.016-2.25-2.25 0-0.141-0.109-0.25-0.25-0.25s-0.25 0.109-0.25 0.25c0 1.516 1.234 2.75 2.75 2.75 0.141 0 0.25-0.109 0.25-0.25zM3.844 22h20.312c-2.797-3.156-4.156-7.438-4.156-13 0-2.016-1.906-5-6-5s-6 2.984-6 5c0 5.563-1.359 9.844-4.156 13zM27 22c0 1.094-0.906 2-2 2h-7c0 2.203-1.797 4-4 4s-4-1.797-4-4h-7c-1.094 0-2-0.906-2-2 2.312-1.953 5-5.453 5-13 0-3 2.484-6.281 6.625-6.891-0.078-0.187-0.125-0.391-0.125-0.609 0-0.828 0.672-1.5 1.5-1.5s1.5 0.672 1.5 1.5c0 0.219-0.047 0.422-0.125 0.609 4.141 0.609 6.625 3.891 6.625 6.891 0 7.547 2.688 11.047 5 13z"></path>
</symbol>
<symbol id="icon-refresh" viewBox="0 0 24 28">
<title>refresh</title>
<path d="M23.609 16.5c0 0.031 0 0.078-0.016 0.109-1.328 5.531-5.891 9.391-11.656 9.391-3.047 0-6-1.203-8.219-3.313l-2.016 2.016c-0.187 0.187-0.438 0.297-0.703 0.297-0.547 0-1-0.453-1-1v-7c0-0.547 0.453-1 1-1h7c0.547 0 1 0.453 1 1 0 0.266-0.109 0.516-0.297 0.703l-2.141 2.141c1.469 1.375 3.422 2.156 5.437 2.156 2.781 0 5.359-1.437 6.813-3.813 0.375-0.609 0.562-1.203 0.828-1.828 0.078-0.219 0.234-0.359 0.469-0.359h3c0.281 0 0.5 0.234 0.5 0.5zM24 4v7c0 0.547-0.453 1-1 1h-7c-0.547 0-1-0.453-1-1 0-0.266 0.109-0.516 0.297-0.703l2.156-2.156c-1.484-1.375-3.437-2.141-5.453-2.141-2.781 0-5.359 1.437-6.813 3.813-0.375 0.609-0.562 1.203-0.828 1.828-0.078 0.219-0.234 0.359-0.469 0.359h-3.109c-0.281 0-0.5-0.234-0.5-0.5v-0.109c1.344-5.547 5.953-9.391 11.719-9.391 3.063 0 6.047 1.219 8.266 3.313l2.031-2.016c0.187-0.187 0.438-0.297 0.703-0.297 0.547 0 1 0.453 1 1z"></path>
</symbol>
<symbol id="icon-eye" viewBox="0 0 28 28">
<title>eye</title>
<path d="M26 15c-1.484-2.297-3.516-4.266-5.953-5.516 0.625 1.062 0.953 2.281 0.953 3.516 0 3.859-3.141 7-7 7s-7-3.141-7-7c0-1.234 0.328-2.453 0.953-3.516-2.438 1.25-4.469 3.219-5.953 5.516 2.672 4.125 6.984 7 12 7s9.328-2.875 12-7zM14.75 9c0-0.406-0.344-0.75-0.75-0.75-2.609 0-4.75 2.141-4.75 4.75 0 0.406 0.344 0.75 0.75 0.75s0.75-0.344 0.75-0.75c0-1.781 1.469-3.25 3.25-3.25 0.406 0 0.75-0.344 0.75-0.75zM28 15c0 0.391-0.125 0.75-0.313 1.078-2.875 4.734-8.141 7.922-13.687 7.922s-10.813-3.203-13.687-7.922c-0.187-0.328-0.313-0.688-0.313-1.078s0.125-0.75 0.313-1.078c2.875-4.719 8.141-7.922 13.687-7.922s10.813 3.203 13.687 7.922c0.187 0.328 0.313 0.688 0.313 1.078z"></path>
</symbol>
<symbol id="icon-edit" viewBox="0 0 28 28">
<title>edit</title>
<path d="M13.875 18.5l1.813-1.813-2.375-2.375-1.813 1.813v0.875h1.5v1.5h0.875zM20.75 7.25c-0.141-0.141-0.375-0.125-0.516 0.016l-5.469 5.469c-0.141 0.141-0.156 0.375-0.016 0.516s0.375 0.125 0.516-0.016l5.469-5.469c0.141-0.141 0.156-0.375 0.016-0.516zM22 16.531v2.969c0 2.484-2.016 4.5-4.5 4.5h-13c-2.484 0-4.5-2.016-4.5-4.5v-13c0-2.484 2.016-4.5 4.5-4.5h13c0.625 0 1.25 0.125 1.828 0.391 0.141 0.063 0.25 0.203 0.281 0.359 0.031 0.172-0.016 0.328-0.141 0.453l-0.766 0.766c-0.141 0.141-0.328 0.187-0.5 0.125-0.234-0.063-0.469-0.094-0.703-0.094h-13c-1.375 0-2.5 1.125-2.5 2.5v13c0 1.375 1.125 2.5 2.5 2.5h13c1.375 0 2.5-1.125 2.5-2.5v-1.969c0-0.125 0.047-0.25 0.141-0.344l1-1c0.156-0.156 0.359-0.187 0.547-0.109s0.313 0.25 0.313 0.453zM20.5 5l4.5 4.5-10.5 10.5h-4.5v-4.5zM27.438 7.063l-1.437 1.437-4.5-4.5 1.437-1.437c0.578-0.578 1.547-0.578 2.125 0l2.375 2.375c0.578 0.578 0.578 1.547 0 2.125z"></path>
</symbol>
<symbol id="icon-cc-paypal" viewBox="0 0 36 28">
<title>cc-paypal</title>
<path d="M11.641 14.156c0 0.766-0.609 1.344-1.375 1.344-0.578 0-1-0.328-1-0.938 0-0.766 0.594-1.375 1.359-1.375 0.578 0 1.016 0.359 1.016 0.969zM23.906 11.828c0 0.938-0.562 1.125-1.375 1.125l-0.5 0.016 0.266-1.672c0.016-0.109 0.094-0.172 0.203-0.172h0.281c0.531 0 1.125 0.031 1.125 0.703zM29.391 14.156c0 0.766-0.609 1.344-1.359 1.344-0.578 0-1.016-0.328-1.016-0.938 0-0.766 0.594-1.375 1.359-1.375 0.578 0 1.016 0.359 1.016 0.969zM8.016 11.484c0-1.313-1.016-1.75-2.172-1.75h-2.5c-0.156 0-0.313 0.125-0.328 0.297l-1.016 6.375c-0.016 0.125 0.078 0.25 0.203 0.25h1.188c0.172 0 0.328-0.125 0.344-0.297l0.281-1.719c0.063-0.453 0.828-0.297 1.125-0.297 1.781 0 2.875-1.062 2.875-2.859zM12.844 16.359l0.641-4.078c0.016-0.125-0.078-0.25-0.203-0.25h-1.188c-0.234 0-0.25 0.344-0.266 0.516-0.359-0.531-0.891-0.625-1.484-0.625-1.531 0-2.703 1.344-2.703 2.828 0 1.219 0.766 2.016 1.984 2.016 0.562 0 1.266-0.25 1.656-0.688-0.031 0.094-0.063 0.234-0.063 0.328 0 0.141 0.063 0.25 0.203 0.25h1.078c0.172 0 0.313-0.125 0.344-0.297zM19.828 12.25c0-0.109-0.094-0.219-0.203-0.219h-1.203c-0.109 0-0.219 0.063-0.281 0.156l-1.656 2.438-0.688-2.344c-0.047-0.141-0.187-0.25-0.344-0.25h-1.172c-0.109 0-0.203 0.109-0.203 0.219 0 0.078 1.219 3.609 1.328 3.938-0.172 0.234-1.281 1.687-1.281 1.875 0 0.109 0.094 0.203 0.203 0.203h1.203c0.109 0 0.219-0.063 0.281-0.156l3.984-5.75c0.031-0.031 0.031-0.063 0.031-0.109zM25.766 11.484c0-1.313-1.016-1.75-2.172-1.75h-2.484c-0.172 0-0.328 0.125-0.344 0.297l-1.016 6.375c-0.016 0.125 0.078 0.25 0.203 0.25h1.281c0.125 0 0.219-0.094 0.25-0.203l0.281-1.813c0.063-0.453 0.828-0.297 1.125-0.297 1.781 0 2.875-1.062 2.875-2.859zM30.594 16.359l0.641-4.078c0.016-0.125-0.078-0.25-0.203-0.25h-1.188c-0.234 0-0.25 0.344-0.266 0.516-0.344-0.531-0.875-0.625-1.484-0.625-1.531 0-2.703 1.344-2.703 2.828 0 1.219 0.766 2.016 1.984 2.016 0.578 0 1.281-0.25 1.656-0.688-0.016 0.094-0.063 0.234-0.063 0.328 0 0.141 0.063 0.25 0.203 0.25h1.078c0.172 0 0.313-0.125 0.344-0.297zM34 9.969v-0.016c0-0.125-0.094-0.219-0.203-0.219h-1.156c-0.094 0-0.187 0.078-0.203 0.172l-1.016 6.5-0.016 0.031c0 0.109 0.094 0.219 0.219 0.219h1.031c0.156 0 0.313-0.125 0.328-0.297zM6.125 12.063c-0.125 0.797-0.656 0.891-1.344 0.891l-0.516 0.016 0.266-1.672c0.016-0.109 0.109-0.172 0.203-0.172h0.297c0.703 0 1.234 0.094 1.094 0.938zM36 4v20c0 1.094-0.906 2-2 2h-32c-1.094 0-2-0.906-2-2v-20c0-1.094 0.906-2 2-2h32c1.094 0 2 0.906 2 2z"></path>
</symbol>
<symbol id="icon-paypal" viewBox="0 0 24 28">
<title>paypal</title>
<path d="M23.734 10.094v0c0.203 0.938 0.156 2.016-0.063 3.187-1.016 5.156-4.438 6.937-8.828 6.937h-0.688c-0.531 0-0.969 0.391-1.062 0.922l-0.063 0.297-0.859 5.406-0.031 0.234c-0.109 0.531-0.547 0.922-1.078 0.922h-3.922c-0.438 0-0.719-0.359-0.656-0.797 0.281-1.75 0.547-3.5 0.828-5.25s0.562-3.484 0.844-5.234c0.047-0.375 0.297-0.578 0.672-0.578 0.625 0 1.25-0.016 2.047 0 1.125 0.016 2.422-0.047 3.687-0.328 1.687-0.375 3.219-1.062 4.484-2.25 1.141-1.062 1.906-2.375 2.422-3.844 0.234-0.688 0.422-1.375 0.547-2.078 0.031-0.187 0.078-0.156 0.187-0.078 0.859 0.641 1.344 1.5 1.531 2.531zM21.047 5.688c0 1.281-0.297 2.5-0.719 3.687-0.812 2.359-2.344 4.047-4.719 4.922-1.266 0.453-2.594 0.641-3.938 0.656-0.938 0.016-1.875 0-2.812 0-1.016 0-1.656 0.5-1.844 1.5-0.219 1.188-1.078 6.719-1.328 8.281-0.016 0.109-0.063 0.156-0.187 0.156h-4.609c-0.469 0-0.812-0.406-0.75-0.859l3.625-22.984c0.094-0.594 0.625-1.047 1.234-1.047h9.344c0.672 0 2.219 0.297 3.266 0.703 2.219 0.859 3.437 2.609 3.437 4.984z"></path>
</symbol>
<symbol id="icon-cc-stripe" viewBox="0 0 36 28">
<title>cc-stripe</title>
<path d="M24.953 14.109c0 0.719-0.109 1.266-0.328 1.656-0.187 0.344-0.484 0.547-0.812 0.547-0.234 0-0.453-0.047-0.641-0.141v-3.5c0.406-0.422 0.766-0.469 0.891-0.469 0.594 0 0.891 0.656 0.891 1.906zM31.797 13.547h-1.719c0.063-1.047 0.344-1.531 0.875-1.531s0.812 0.5 0.844 1.531zM7.438 15.656c0-1.313-0.797-1.859-2.094-2.328v0c-0.688-0.25-1.062-0.453-1.062-0.766 0-0.266 0.219-0.406 0.594-0.406 0.719 0 1.437 0.266 1.937 0.516l0.281-1.75c-0.391-0.187-1.203-0.5-2.328-0.5-0.797 0-1.453 0.203-1.922 0.594-0.5 0.406-0.75 1-0.75 1.703 0 1.281 0.781 1.844 2.063 2.297 0.812 0.297 1.094 0.5 1.094 0.828 0 0.313-0.266 0.484-0.75 0.484-0.594 0-1.578-0.297-2.219-0.672l-0.281 1.766c0.547 0.313 1.563 0.641 2.625 0.641 0.844 0 1.531-0.203 2.016-0.578 0.531-0.422 0.797-1.031 0.797-1.828zM12.047 12.297l0.297-1.734h-1.5v-2.109l-2.016 0.328-0.281 1.781-0.719 0.125-0.266 1.609h0.969v3.422c0 0.891 0.234 1.5 0.688 1.875 0.391 0.313 0.953 0.469 1.734 0.469 0.609 0 0.969-0.109 1.234-0.172v-1.844c-0.141 0.031-0.469 0.109-0.688 0.109-0.453 0-0.656-0.25-0.656-0.781v-3.078h1.203zM16.984 12.688v-2.172c-0.156-0.031-0.297-0.047-0.438-0.047-0.656 0-1.188 0.344-1.391 0.969l-0.156-0.875h-2.047v7.359h2.344v-4.781c0.297-0.359 0.719-0.484 1.281-0.484 0.125 0 0.25 0 0.406 0.031zM17.563 17.922h2.344v-7.359h-2.344v7.359zM27.281 14.031c0-1.25-0.234-2.203-0.703-2.797-0.422-0.547-1-0.812-1.734-0.812-0.672 0-1.266 0.281-1.828 0.875l-0.125-0.734h-2.063v10.078l2.344-0.391v-2.359c0.359 0.109 0.734 0.172 1.062 0.172 0.578 0 1.437-0.156 2.094-0.875 0.641-0.688 0.953-1.75 0.953-3.156zM19.969 8.594c0-0.688-0.547-1.234-1.234-1.234s-1.234 0.547-1.234 1.234 0.547 1.25 1.234 1.25 1.234-0.562 1.234-1.25zM34 14.172c0-1.172-0.25-2.094-0.75-2.75-0.516-0.656-1.281-1-2.25-1-2 0-3.234 1.469-3.234 3.844 0 1.313 0.328 2.312 0.984 2.938 0.578 0.578 1.422 0.859 2.516 0.859 1 0 1.922-0.234 2.5-0.625l-0.25-1.609c-0.578 0.313-1.25 0.484-2 0.484-0.453 0-0.766-0.094-0.984-0.297-0.25-0.203-0.391-0.547-0.438-1.031h3.875c0.016-0.109 0.031-0.641 0.031-0.812zM36 4v20c0 1.094-0.906 2-2 2h-32c-1.094 0-2-0.906-2-2v-20c0-1.094 0.906-2 2-2h32c1.094 0 2 0.906 2 2z"></path>
</symbol>
<symbol id="icon-user-o" viewBox="0 0 24 28">
<title>user-o</title>
<path d="M18.766 12.25c2.203 0.641 5.234 2.812 5.234 9.922 0 3.219-2.391 5.828-5.328 5.828h-13.344c-2.938 0-5.328-2.609-5.328-5.828 0-7.109 3.031-9.281 5.234-9.922-0.781-1.234-1.234-2.688-1.234-4.25 0-4.406 3.594-8 8-8s8 3.594 8 8c0 1.563-0.453 3.016-1.234 4.25zM12 2c-3.313 0-6 2.688-6 6s2.688 6 6 6 6-2.688 6-6-2.688-6-6-6zM18.672 26c1.828 0 3.328-1.703 3.328-3.828 0-4.922-1.656-8-4.75-8.156-1.406 1.234-3.234 1.984-5.25 1.984s-3.844-0.75-5.25-1.984c-3.094 0.156-4.75 3.234-4.75 8.156 0 2.125 1.5 3.828 3.328 3.828h13.344z"></path>
</symbol>
<symbol id="icon-user-circle-o" viewBox="0 0 28 28">
<title>user-circle-o</title>
<path d="M14 0c7.734 0 14 6.266 14 14 0 7.688-6.234 14-14 14-7.75 0-14-6.297-14-14 0-7.734 6.266-14 14-14zM23.672 21.109c1.453-2 2.328-4.453 2.328-7.109 0-6.609-5.391-12-12-12s-12 5.391-12 12c0 2.656 0.875 5.109 2.328 7.109 0.562-2.797 1.922-5.109 4.781-5.109 1.266 1.234 2.984 2 4.891 2s3.625-0.766 4.891-2c2.859 0 4.219 2.312 4.781 5.109zM20 11c0-3.313-2.688-6-6-6s-6 2.688-6 6 2.688 6 6 6 6-2.688 6-6z"></path>
</symbol>
<symbol id="icon-user-circle" viewBox="0 0 28 28">
<title>user-circle</title>
<path d="M23.797 20.922c-0.406-2.922-1.594-5.516-4.25-5.875-1.375 1.5-3.359 2.453-5.547 2.453s-4.172-0.953-5.547-2.453c-2.656 0.359-3.844 2.953-4.25 5.875 2.172 3.063 5.75 5.078 9.797 5.078s7.625-2.016 9.797-5.078zM20 10c0-3.313-2.688-6-6-6s-6 2.688-6 6 2.688 6 6 6 6-2.688 6-6zM28 14c0 7.703-6.25 14-14 14-7.734 0-14-6.281-14-14 0-7.734 6.266-14 14-14s14 6.266 14 14z"></path>
</symbol>
<symbol id="icon-user-plus" viewBox="0 0 32 28">
<title>user-plus</title>
<path d="M11 14c-3.313 0-6-2.688-6-6s2.688-6 6-6 6 2.688 6 6-2.688 6-6 6zM26 16h5.5c0.266 0 0.5 0.234 0.5 0.5v3c0 0.266-0.234 0.5-0.5 0.5h-5.5v5.5c0 0.266-0.234 0.5-0.5 0.5h-3c-0.266 0-0.5-0.234-0.5-0.5v-5.5h-5.5c-0.266 0-0.5-0.234-0.5-0.5v-3c0-0.266 0.234-0.5 0.5-0.5h5.5v-5.5c0-0.266 0.234-0.5 0.5-0.5h3c0.266 0 0.5 0.234 0.5 0.5v5.5zM14.5 19.5c0 1.094 0.906 2 2 2h4v3.719c-0.766 0.562-1.734 0.781-2.672 0.781h-13.656c-2.5 0-4.172-1.5-4.172-4.047 0-3.531 0.828-8.953 5.406-8.953 0.25 0 0.422 0.109 0.609 0.266 1.531 1.172 3.016 1.906 4.984 1.906s3.453-0.734 4.984-1.906c0.187-0.156 0.359-0.266 0.609-0.266 1.328 0 2.5 0.5 3.391 1.5h-3.484c-1.094 0-2 0.906-2 2v3z"></path>
</symbol>
<symbol id="icon-briefcase" viewBox="0 0 28 28">
<title>briefcase</title>
<path d="M10 4h8v-2h-8v2zM28 14v7.5c0 1.375-1.125 2.5-2.5 2.5h-23c-1.375 0-2.5-1.125-2.5-2.5v-7.5h10.5v2.5c0 0.547 0.453 1 1 1h5c0.547 0 1-0.453 1-1v-2.5h10.5zM16 14v2h-4v-2h4zM28 6.5v6h-28v-6c0-1.375 1.125-2.5 2.5-2.5h5.5v-2.5c0-0.828 0.672-1.5 1.5-1.5h9c0.828 0 1.5 0.672 1.5 1.5v2.5h5.5c1.375 0 2.5 1.125 2.5 2.5z"></path>
</symbol>
<symbol id="icon-commenting-o" viewBox="0 0 28 28">
<title>commenting-o</title>
<path d="M10 14c0 1.109-0.891 2-2 2s-2-0.891-2-2 0.891-2 2-2 2 0.891 2 2zM16 14c0 1.109-0.891 2-2 2s-2-0.891-2-2 0.891-2 2-2 2 0.891 2 2zM22 14c0 1.109-0.891 2-2 2s-2-0.891-2-2 0.891-2 2-2 2 0.891 2 2zM14 6c-6.5 0-12 3.656-12 8 0 2.328 1.563 4.547 4.266 6.078l1.359 0.781-0.422 1.5c-0.297 1.109-0.688 1.969-1.094 2.688 1.578-0.656 3.016-1.547 4.297-2.672l0.672-0.594 0.891 0.094c0.672 0.078 1.359 0.125 2.031 0.125 6.5 0 12-3.656 12-8s-5.5-8-12-8zM28 14c0 5.531-6.266 10-14 10-0.766 0-1.531-0.047-2.266-0.125-2.047 1.813-4.484 3.094-7.187 3.781-0.562 0.156-1.172 0.266-1.781 0.344h-0.078c-0.313 0-0.594-0.25-0.672-0.594v-0.016c-0.078-0.391 0.187-0.625 0.422-0.906 0.984-1.109 2.109-2.047 2.844-4.656-3.219-1.828-5.281-4.656-5.281-7.828 0-5.516 6.266-10 14-10v0c7.734 0 14 4.484 14 10z"></path>
</symbol>
<symbol id="icon-commenting" viewBox="0 0 28 28">
<title>commenting</title>
<path d="M10 14c0-1.109-0.891-2-2-2s-2 0.891-2 2 0.891 2 2 2 2-0.891 2-2zM16 14c0-1.109-0.891-2-2-2s-2 0.891-2 2 0.891 2 2 2 2-0.891 2-2zM22 14c0-1.109-0.891-2-2-2s-2 0.891-2 2 0.891 2 2 2 2-0.891 2-2zM28 14c0 5.531-6.266 10-14 10-1.141 0-2.25-0.094-3.297-0.281-1.781 1.781-4.109 3-6.797 3.578-0.422 0.078-0.875 0.156-1.344 0.203-0.25 0.031-0.484-0.141-0.547-0.375v0c-0.063-0.25 0.125-0.406 0.313-0.578 0.984-0.922 2.156-1.656 2.562-4.953-2.984-1.828-4.891-4.547-4.891-7.594 0-5.531 6.266-10 14-10s14 4.469 14 10z"></path>
</symbol>
<symbol id="icon-automobile" viewBox="0 0 32 28">
<title>automobile</title>
<path d="M7.5 17c0-1.375-1.125-2.5-2.5-2.5s-2.5 1.125-2.5 2.5 1.125 2.5 2.5 2.5 2.5-1.125 2.5-2.5zM8.062 12h15.875l-1.391-5.578c-0.047-0.172-0.359-0.422-0.547-0.422h-12c-0.187 0-0.5 0.25-0.547 0.422zM29.5 17c0-1.375-1.125-2.5-2.5-2.5s-2.5 1.125-2.5 2.5 1.125 2.5 2.5 2.5 2.5-1.125 2.5-2.5zM32 15.5v6c0 0.281-0.219 0.5-0.5 0.5h-1.5v2c0 1.656-1.344 3-3 3s-3-1.344-3-3v-2h-16v2c0 1.656-1.344 3-3 3s-3-1.344-3-3v-2h-1.5c-0.281 0-0.5-0.219-0.5-0.5v-6c0-1.937 1.563-3.5 3.5-3.5h0.438l1.641-6.547c0.484-1.969 2.391-3.453 4.422-3.453h12c2.031 0 3.938 1.484 4.422 3.453l1.641 6.547h0.438c1.937 0 3.5 1.563 3.5 3.5z"></path>
</symbol>
<symbol id="icon-google-wallet" viewBox="0 0 28 28">
<title>google-wallet</title>
<path d="M6.891 10.5c0.313 0 0.625 0.156 0.812 0.406 2.734 3.734 4.641 7.734 5.656 12.094h-6.969c-1.25-4.344-3.094-8.313-5.734-11.703-0.25-0.328 0-0.797 0.406-0.797h5.828zM15.625 16.078c-0.516 2.109-1.172 4.156-1.953 6.141-0.828-3.266-2.156-6.328-4-9.281 0.406-2.266 0.641-4.594 0.688-7.016 2.203 3.547 3.953 6.922 5.266 10.156zM17.172 5c4.672 6.438 8.141 14.375 8.891 23h-7.047c-0.516-8.344-4.359-16.25-8.641-23h6.797zM28 14c0 4.344-0.594 8.906-1.578 12.688-0.688-5.781-2.594-11.531-5.609-16.922-0.266-3.156-0.828-6.219-1.656-9.125-0.078-0.328 0.156-0.641 0.484-0.641h5.609c0.438 0 0.844 0.297 0.953 0.719 1.188 4.219 1.797 8.687 1.797 13.281z"></path>
</symbol>
<symbol id="icon-google-plus-square" viewBox="0 0 24 28">
<title>google-plus-square</title>
<path d="M14.328 14.141c0-0.391-0.047-0.703-0.094-1h-5.656v2.063h3.391c-0.125 0.875-1.016 2.578-3.391 2.578-2.063 0-3.734-1.687-3.734-3.781s1.672-3.781 3.734-3.781c1.156 0 1.937 0.484 2.391 0.922l1.625-1.578c-1.047-0.969-2.406-1.563-4.016-1.563-3.328 0-6 2.688-6 6s2.672 6 6 6c3.453 0 5.75-2.438 5.75-5.859zM19.719 14.859h1.703v-1.719h-1.703v-1.719h-1.719v1.719h-1.719v1.719h1.719v1.719h1.719v-1.719zM24 6.5v15c0 2.484-2.016 4.5-4.5 4.5h-15c-2.484 0-4.5-2.016-4.5-4.5v-15c0-2.484 2.016-4.5 4.5-4.5h15c2.484 0 4.5 2.016 4.5 4.5z"></path>
</symbol>
<symbol id="icon-google-plus" viewBox="0 0 36 28">
<title>google-plus</title>
<path d="M22.453 14.266c0 6.547-4.391 11.188-11 11.188-6.328 0-11.453-5.125-11.453-11.453s5.125-11.453 11.453-11.453c3.094 0 5.672 1.125 7.672 3l-3.109 2.984c-0.844-0.812-2.328-1.766-4.562-1.766-3.906 0-7.094 3.234-7.094 7.234s3.187 7.234 7.094 7.234c4.531 0 6.234-3.266 6.5-4.937h-6.5v-3.938h10.813c0.109 0.578 0.187 1.156 0.187 1.906zM36 12.359v3.281h-3.266v3.266h-3.281v-3.266h-3.266v-3.281h3.266v-3.266h3.281v3.266h3.266z"></path>
</symbol>
<symbol id="icon-briefcase1" viewBox="0 0 28 28">
<title>briefcase1</title>
<path d="M10 4h8v-2h-8v2zM28 14v7.5c0 1.375-1.125 2.5-2.5 2.5h-23c-1.375 0-2.5-1.125-2.5-2.5v-7.5h10.5v2.5c0 0.547 0.453 1 1 1h5c0.547 0 1-0.453 1-1v-2.5h10.5zM16 14v2h-4v-2h4zM28 6.5v6h-28v-6c0-1.375 1.125-2.5 2.5-2.5h5.5v-2.5c0-0.828 0.672-1.5 1.5-1.5h9c0.828 0 1.5 0.672 1.5 1.5v2.5h5.5c1.375 0 2.5 1.125 2.5 2.5z"></path>
</symbol>
<symbol id="icon-sign-out" viewBox="0 0 25 28">
<title>sign-out</title>
<path d="M10 22.5c0 0.438 0.203 1.5-0.5 1.5h-5c-2.484 0-4.5-2.016-4.5-4.5v-11c0-2.484 2.016-4.5 4.5-4.5h5c0.266 0 0.5 0.234 0.5 0.5 0 0.438 0.203 1.5-0.5 1.5h-5c-1.375 0-2.5 1.125-2.5 2.5v11c0 1.375 1.125 2.5 2.5 2.5h4.5c0.391 0 1-0.078 1 0.5zM24.5 14c0 0.266-0.109 0.516-0.297 0.703l-8.5 8.5c-0.187 0.187-0.438 0.297-0.703 0.297-0.547 0-1-0.453-1-1v-4.5h-7c-0.547 0-1-0.453-1-1v-6c0-0.547 0.453-1 1-1h7v-4.5c0-0.547 0.453-1 1-1 0.266 0 0.516 0.109 0.703 0.297l8.5 8.5c0.187 0.187 0.297 0.438 0.297 0.703z"></path>
</symbol>
<symbol id="icon-sign-in" viewBox="0 0 24 28">
<title>sign-in</title>
<path d="M18.5 14c0 0.266-0.109 0.516-0.297 0.703l-8.5 8.5c-0.187 0.187-0.438 0.297-0.703 0.297-0.547 0-1-0.453-1-1v-4.5h-7c-0.547 0-1-0.453-1-1v-6c0-0.547 0.453-1 1-1h7v-4.5c0-0.547 0.453-1 1-1 0.266 0 0.516 0.109 0.703 0.297l8.5 8.5c0.187 0.187 0.297 0.438 0.297 0.703zM24 8.5v11c0 2.484-2.016 4.5-4.5 4.5h-5c-0.266 0-0.5-0.234-0.5-0.5 0-0.438-0.203-1.5 0.5-1.5h5c1.375 0 2.5-1.125 2.5-2.5v-11c0-1.375-1.125-2.5-2.5-2.5h-4.5c-0.391 0-1 0.078-1-0.5 0-0.438-0.203-1.5 0.5-1.5h5c2.484 0 4.5 2.016 4.5 4.5z"></path>
</symbol>
<symbol id="icon-map-o" viewBox="0 0 32 28">
<title>map-o</title>
<path d="M31.563 0.172c0.266 0.187 0.438 0.5 0.438 0.828v22c0 0.406-0.25 0.781-0.625 0.922l-10 4c-0.25 0.109-0.5 0.109-0.75 0l-9.625-3.844-9.625 3.844c-0.125 0.063-0.25 0.078-0.375 0.078-0.203 0-0.391-0.063-0.562-0.172-0.266-0.187-0.438-0.5-0.438-0.828v-22c0-0.406 0.25-0.781 0.625-0.922l10-4c0.25-0.109 0.5-0.109 0.75 0l9.625 3.844 9.625-3.844c0.313-0.125 0.656-0.094 0.938 0.094zM11.5 2.281v19.844l9 3.594v-19.844zM2 5.672v19.844l8.5-3.391v-19.844zM30 22.328v-19.844l-8.5 3.391v19.844z"></path>
</symbol>
<symbol id="icon-map-signs" viewBox="0 0 28 28">
<title>map-signs</title>
<path d="M27.266 4.641c0.203 0.203 0.203 0.516 0 0.719l-2.203 2.203c-0.281 0.281-0.672 0.438-1.062 0.438h-21c-0.547 0-1-0.453-1-1v-4c0-0.547 0.453-1 1-1h9v-1c0-0.547 0.453-1 1-1h2c0.547 0 1 0.453 1 1v1h8c0.391 0 0.781 0.156 1.062 0.438zM12 19h4v8c0 0.547-0.453 1-1 1h-2c-0.547 0-1-0.453-1-1v-8zM25 12c0.547 0 1 0.453 1 1v4c0 0.547-0.453 1-1 1h-21c-0.391 0-0.781-0.156-1.062-0.438l-2.203-2.203c-0.203-0.203-0.203-0.516 0-0.719l2.203-2.203c0.281-0.281 0.672-0.438 1.062-0.438h8v-3h4v3h9z"></path>
</symbol>
<symbol id="icon-map2" viewBox="0 0 28 28">
<title>map2</title>
<path d="M8 0c0.266 0 0.5 0.234 0.5 0.5v23c0 0.187-0.109 0.359-0.266 0.438l-7.5 4c-0.078 0.047-0.156 0.063-0.234 0.063-0.266 0-0.5-0.234-0.5-0.5v-23c0-0.187 0.109-0.359 0.266-0.438l7.5-4c0.078-0.047 0.156-0.063 0.234-0.063zM27.5 0c0.266 0 0.5 0.234 0.5 0.5v23c0 0.187-0.109 0.359-0.266 0.438l-7.5 4c-0.078 0.047-0.156 0.063-0.234 0.063-0.266 0-0.5-0.234-0.5-0.5v-23c0-0.187 0.109-0.359 0.266-0.438l7.5-4c0.078-0.047 0.156-0.063 0.234-0.063zM10 0c0.078 0 0.156 0.016 0.219 0.047l8 4c0.172 0.094 0.281 0.266 0.281 0.453v23c0 0.266-0.234 0.5-0.5 0.5-0.078 0-0.156-0.016-0.219-0.047l-8-4c-0.172-0.094-0.281-0.266-0.281-0.453v-23c0-0.266 0.234-0.5 0.5-0.5z"></path>
</symbol>
<symbol id="icon-map-marker2" viewBox="0 0 16 28">
<title>map-marker2</title>
<path d="M12 10c0-2.203-1.797-4-4-4s-4 1.797-4 4 1.797 4 4 4 4-1.797 4-4zM16 10c0 0.953-0.109 1.937-0.516 2.797l-5.688 12.094c-0.328 0.688-1.047 1.109-1.797 1.109s-1.469-0.422-1.781-1.109l-5.703-12.094c-0.406-0.859-0.516-1.844-0.516-2.797 0-4.422 3.578-8 8-8s8 3.578 8 8z"></path>
</symbol>
<symbol id="icon-bed" viewBox="0 0 32 28">
<title>bed</title>
<path d="M4 16h27c0.547 0 1 0.453 1 1v7h-4v-4h-24v4h-4v-19c0-0.547 0.453-1 1-1h2c0.547 0 1 0.453 1 1v11zM13 11c0-2.203-1.797-4-4-4s-4 1.797-4 4 1.797 4 4 4 4-1.797 4-4zM32 15v-1c0-3.313-2.688-6-6-6h-11c-0.547 0-1 0.453-1 1v6h18z"></path>
</symbol>
<symbol id="icon-shower" viewBox="0 0 30 28">
<title>shower</title>
<path d="M22.391 3.891c0.203 0.203 0.203 0.516 0 0.719l-9.781 9.781c-0.203 0.203-0.516 0.203-0.719 0l-1.281-1.281c-0.203-0.203-0.203-0.516 0-0.719l0.688-0.688c-1.516-1.906-1.703-4.516-0.547-6.594-0.719-0.688-1.687-1.109-2.75-1.109-2.203 0-4 1.797-4 4v20h-4v-20c0-4.406 3.594-8 8-8 2.25 0 4.281 0.938 5.734 2.438 1.969-0.797 4.25-0.5 5.969 0.859l0.688-0.688c0.203-0.203 0.516-0.203 0.719 0zM21 8c0.547 0 1 0.453 1 1s-0.453 1-1 1-1-0.453-1-1 0.453-1 1-1zM25 10c-0.547 0-1-0.453-1-1s0.453-1 1-1 1 0.453 1 1-0.453 1-1 1zM29 8c0.547 0 1 0.453 1 1s-0.453 1-1 1-1-0.453-1-1 0.453-1 1-1zM19 10c0.547 0 1 0.453 1 1s-0.453 1-1 1-1-0.453-1-1 0.453-1 1-1zM22 11c0-0.547 0.453-1 1-1s1 0.453 1 1-0.453 1-1 1-1-0.453-1-1zM27 10c0.547 0 1 0.453 1 1s-0.453 1-1 1-1-0.453-1-1 0.453-1 1-1zM17 12c0.547 0 1 0.453 1 1s-0.453 1-1 1-1-0.453-1-1 0.453-1 1-1zM21 14c-0.547 0-1-0.453-1-1s0.453-1 1-1 1 0.453 1 1-0.453 1-1 1zM25 12c0.547 0 1 0.453 1 1s-0.453 1-1 1-1-0.453-1-1 0.453-1 1-1zM19 16c-0.547 0-1-0.453-1-1s0.453-1 1-1 1 0.453 1 1-0.453 1-1 1zM23 14c0.547 0 1 0.453 1 1s-0.453 1-1 1-1-0.453-1-1 0.453-1 1-1zM17 16c0.547 0 1 0.453 1 1s-0.453 1-1 1-1-0.453-1-1 0.453-1 1-1zM21 16c0.547 0 1 0.453 1 1s-0.453 1-1 1-1-0.453-1-1 0.453-1 1-1zM19 18c0.547 0 1 0.453 1 1s-0.453 1-1 1-1-0.453-1-1 0.453-1 1-1zM17 20c0.547 0 1 0.453 1 1s-0.453 1-1 1-1-0.453-1-1 0.453-1 1-1z"></path>
</symbol>
<symbol id="icon-home" viewBox="0 0 26 28">
<title>home</title>
<path d="M22 15.5v7.5c0 0.547-0.453 1-1 1h-6v-6h-4v6h-6c-0.547 0-1-0.453-1-1v-7.5c0-0.031 0.016-0.063 0.016-0.094l8.984-7.406 8.984 7.406c0.016 0.031 0.016 0.063 0.016 0.094zM25.484 14.422l-0.969 1.156c-0.078 0.094-0.203 0.156-0.328 0.172h-0.047c-0.125 0-0.234-0.031-0.328-0.109l-10.813-9.016-10.813 9.016c-0.109 0.078-0.234 0.125-0.375 0.109-0.125-0.016-0.25-0.078-0.328-0.172l-0.969-1.156c-0.172-0.203-0.141-0.531 0.063-0.703l11.234-9.359c0.656-0.547 1.719-0.547 2.375 0l3.813 3.187v-3.047c0-0.281 0.219-0.5 0.5-0.5h3c0.281 0 0.5 0.219 0.5 0.5v6.375l3.422 2.844c0.203 0.172 0.234 0.5 0.063 0.703z"></path>
</symbol>
<symbol id="icon-keyboard-o" viewBox="0 0 30 28">
<title>keyboard-o</title>
<path d="M6 18.25v1.5c0 0.141-0.109 0.25-0.25 0.25h-1.5c-0.141 0-0.25-0.109-0.25-0.25v-1.5c0-0.141 0.109-0.25 0.25-0.25h1.5c0.141 0 0.25 0.109 0.25 0.25zM8 14.25v1.5c0 0.141-0.109 0.25-0.25 0.25h-3.5c-0.141 0-0.25-0.109-0.25-0.25v-1.5c0-0.141 0.109-0.25 0.25-0.25h3.5c0.141 0 0.25 0.109 0.25 0.25zM6 10.25v1.5c0 0.141-0.109 0.25-0.25 0.25h-1.5c-0.141 0-0.25-0.109-0.25-0.25v-1.5c0-0.141 0.109-0.25 0.25-0.25h1.5c0.141 0 0.25 0.109 0.25 0.25zM22 18.25v1.5c0 0.141-0.109 0.25-0.25 0.25h-13.5c-0.141 0-0.25-0.109-0.25-0.25v-1.5c0-0.141 0.109-0.25 0.25-0.25h13.5c0.141 0 0.25 0.109 0.25 0.25zM12 14.25v1.5c0 0.141-0.109 0.25-0.25 0.25h-1.5c-0.141 0-0.25-0.109-0.25-0.25v-1.5c0-0.141 0.109-0.25 0.25-0.25h1.5c0.141 0 0.25 0.109 0.25 0.25zM10 10.25v1.5c0 0.141-0.109 0.25-0.25 0.25h-1.5c-0.141 0-0.25-0.109-0.25-0.25v-1.5c0-0.141 0.109-0.25 0.25-0.25h1.5c0.141 0 0.25 0.109 0.25 0.25zM16 14.25v1.5c0 0.141-0.109 0.25-0.25 0.25h-1.5c-0.141 0-0.25-0.109-0.25-0.25v-1.5c0-0.141 0.109-0.25 0.25-0.25h1.5c0.141 0 0.25 0.109 0.25 0.25zM14 10.25v1.5c0 0.141-0.109 0.25-0.25 0.25h-1.5c-0.141 0-0.25-0.109-0.25-0.25v-1.5c0-0.141 0.109-0.25 0.25-0.25h1.5c0.141 0 0.25 0.109 0.25 0.25zM20 14.25v1.5c0 0.141-0.109 0.25-0.25 0.25h-1.5c-0.141 0-0.25-0.109-0.25-0.25v-1.5c0-0.141 0.109-0.25 0.25-0.25h1.5c0.141 0 0.25 0.109 0.25 0.25zM26 18.25v1.5c0 0.141-0.109 0.25-0.25 0.25h-1.5c-0.141 0-0.25-0.109-0.25-0.25v-1.5c0-0.141 0.109-0.25 0.25-0.25h1.5c0.141 0 0.25 0.109 0.25 0.25zM18 10.25v1.5c0 0.141-0.109 0.25-0.25 0.25h-1.5c-0.141 0-0.25-0.109-0.25-0.25v-1.5c0-0.141 0.109-0.25 0.25-0.25h1.5c0.141 0 0.25 0.109 0.25 0.25zM22 10.25v1.5c0 0.141-0.109 0.25-0.25 0.25h-1.5c-0.141 0-0.25-0.109-0.25-0.25v-1.5c0-0.141 0.109-0.25 0.25-0.25h1.5c0.141 0 0.25 0.109 0.25 0.25zM26 10.25v5.5c0 0.141-0.109 0.25-0.25 0.25h-3.5c-0.141 0-0.25-0.109-0.25-0.25v-1.5c0-0.141 0.109-0.25 0.25-0.25h1.75v-3.75c0-0.141 0.109-0.25 0.25-0.25h1.5c0.141 0 0.25 0.109 0.25 0.25zM28 22v-14h-26v14h26zM30 8v14c0 1.109-0.891 2-2 2h-26c-1.109 0-2-0.891-2-2v-14c0-1.109 0.891-2 2-2h26c1.109 0 2 0.891 2 2z"></path>
</symbol>
<symbol id="icon-key1" viewBox="0 0 26 28">
<title>key1</title>
<path d="M13 8c0-1.656-1.344-3-3-3s-3 1.344-3 3c0 0.453 0.109 0.891 0.297 1.297-0.406-0.187-0.844-0.297-1.297-0.297-1.656 0-3 1.344-3 3s1.344 3 3 3 3-1.344 3-3c0-0.453-0.109-0.891-0.297-1.297 0.406 0.187 0.844 0.297 1.297 0.297 1.656 0 3-1.344 3-3zM26.297 19c0 0.359-1.437 1.797-1.797 1.797-0.406 0-1.672-1.469-2-1.797l-1.5 1.5 3.437 3.437c0.281 0.281 0.438 0.672 0.438 1.062 0 0.875-1 1.875-1.875 1.875-0.391 0-0.781-0.156-1.062-0.438l-10.484-10.484c-1.641 1.219-3.641 2.047-5.703 2.047-3.406 0-5.75-2.359-5.75-5.75 0-5.125 5.125-10.25 10.25-10.25 3.391 0 5.75 2.344 5.75 5.75 0 2.063-0.828 4.062-2.047 5.703l5.547 5.547 1.5-1.5c-0.328-0.328-1.797-1.594-1.797-2 0-0.359 1.437-1.797 1.797-1.797 0.125 0 0.266 0.063 0.359 0.156 0.578 0.578 4.937 4.688 4.937 5.141z"></path>
</symbol>
<symbol id="icon-user-o1" viewBox="0 0 24 28">
<title>user-o1</title>
<path d="M18.766 12.25c2.203 0.641 5.234 2.812 5.234 9.922 0 3.219-2.391 5.828-5.328 5.828h-13.344c-2.938 0-5.328-2.609-5.328-5.828 0-7.109 3.031-9.281 5.234-9.922-0.781-1.234-1.234-2.688-1.234-4.25 0-4.406 3.594-8 8-8s8 3.594 8 8c0 1.563-0.453 3.016-1.234 4.25zM12 2c-3.313 0-6 2.688-6 6s2.688 6 6 6 6-2.688 6-6-2.688-6-6-6zM18.672 26c1.828 0 3.328-1.703 3.328-3.828 0-4.922-1.656-8-4.75-8.156-1.406 1.234-3.234 1.984-5.25 1.984s-3.844-0.75-5.25-1.984c-3.094 0.156-4.75 3.234-4.75 8.156 0 2.125 1.5 3.828 3.328 3.828h13.344z"></path>
</symbol>
<symbol id="icon-user-circle-o1" viewBox="0 0 28 28">
<title>user-circle-o1</title>
<path d="M14 0c7.734 0 14 6.266 14 14 0 7.688-6.234 14-14 14-7.75 0-14-6.297-14-14 0-7.734 6.266-14 14-14zM23.672 21.109c1.453-2 2.328-4.453 2.328-7.109 0-6.609-5.391-12-12-12s-12 5.391-12 12c0 2.656 0.875 5.109 2.328 7.109 0.562-2.797 1.922-5.109 4.781-5.109 1.266 1.234 2.984 2 4.891 2s3.625-0.766 4.891-2c2.859 0 4.219 2.312 4.781 5.109zM20 11c0-3.313-2.688-6-6-6s-6 2.688-6 6 2.688 6 6 6 6-2.688 6-6z"></path>
</symbol>
<symbol id="icon-user-circle1" viewBox="0 0 28 28">
<title>user-circle1</title>
<path d="M23.797 20.922c-0.406-2.922-1.594-5.516-4.25-5.875-1.375 1.5-3.359 2.453-5.547 2.453s-4.172-0.953-5.547-2.453c-2.656 0.359-3.844 2.953-4.25 5.875 2.172 3.063 5.75 5.078 9.797 5.078s7.625-2.016 9.797-5.078zM20 10c0-3.313-2.688-6-6-6s-6 2.688-6 6 2.688 6 6 6 6-2.688 6-6zM28 14c0 7.703-6.25 14-14 14-7.734 0-14-6.281-14-14 0-7.734 6.266-14 14-14s14 6.266 14 14z"></path>
</symbol>
<symbol id="icon-user-times" viewBox="0 0 32 28">
<title>user-times</title>
<path d="M11 14c-3.313 0-6-2.688-6-6s2.688-6 6-6 6 2.688 6 6-2.688 6-6 6zM27.828 19l3.891 3.891c0.094 0.094 0.141 0.219 0.141 0.359 0 0.125-0.047 0.25-0.141 0.344l-2.125 2.125c-0.094 0.094-0.219 0.141-0.344 0.141-0.141 0-0.266-0.047-0.359-0.141l-3.891-3.891-3.891 3.891c-0.094 0.094-0.219 0.141-0.359 0.141-0.125 0-0.25-0.047-0.344-0.141l-2.125-2.125c-0.094-0.094-0.141-0.219-0.141-0.344 0-0.141 0.047-0.266 0.141-0.359l3.891-3.891-3.891-3.891c-0.094-0.094-0.141-0.219-0.141-0.359 0-0.125 0.047-0.25 0.141-0.344l2.125-2.125c0.094-0.094 0.219-0.141 0.344-0.141 0.141 0 0.266 0.047 0.359 0.141l3.891 3.891 3.891-3.891c0.094-0.094 0.219-0.141 0.359-0.141 0.125 0 0.25 0.047 0.344 0.141l2.125 2.125c0.094 0.094 0.141 0.219 0.141 0.344 0 0.141-0.047 0.266-0.141 0.359zM20.047 19l-2.828 2.828c-0.375 0.375-0.578 0.891-0.578 1.422 0 0.516 0.203 1.031 0.578 1.406l1.297 1.297c-0.219 0.031-0.453 0.047-0.688 0.047h-13.656c-2.5 0-4.172-1.5-4.172-4.047 0-3.531 0.828-8.953 5.406-8.953 0.25 0 0.422 0.109 0.609 0.266 1.5 1.188 3.031 1.906 4.984 1.906s3.484-0.719 4.984-1.906c0.187-0.156 0.359-0.266 0.609-0.266 0.297 0 0.594 0.031 0.891 0.094-0.516 0.5-0.844 0.906-0.844 1.656 0 0.531 0.203 1.047 0.578 1.422z"></path>
</symbol>
<symbol id="icon-group" viewBox="0 0 30 28">
<title>group</title>
<path d="M9.266 14c-1.625 0.047-3.094 0.75-4.141 2h-2.094c-1.563 0-3.031-0.75-3.031-2.484 0-1.266-0.047-5.516 1.937-5.516 0.328 0 1.953 1.328 4.062 1.328 0.719 0 1.406-0.125 2.078-0.359-0.047 0.344-0.078 0.688-0.078 1.031 0 1.422 0.453 2.828 1.266 4zM26 23.953c0 2.531-1.672 4.047-4.172 4.047h-13.656c-2.5 0-4.172-1.516-4.172-4.047 0-3.531 0.828-8.953 5.406-8.953 0.531 0 2.469 2.172 5.594 2.172s5.063-2.172 5.594-2.172c4.578 0 5.406 5.422 5.406 8.953zM10 4c0 2.203-1.797 4-4 4s-4-1.797-4-4 1.797-4 4-4 4 1.797 4 4zM21 10c0 3.313-2.688 6-6 6s-6-2.688-6-6 2.688-6 6-6 6 2.688 6 6zM30 13.516c0 1.734-1.469 2.484-3.031 2.484h-2.094c-1.047-1.25-2.516-1.953-4.141-2 0.812-1.172 1.266-2.578 1.266-4 0-0.344-0.031-0.688-0.078-1.031 0.672 0.234 1.359 0.359 2.078 0.359 2.109 0 3.734-1.328 4.062-1.328 1.984 0 1.937 4.25 1.937 5.516zM28 4c0 2.203-1.797 4-4 4s-4-1.797-4-4 1.797-4 4-4 4 1.797 4 4z"></path>
</symbol>
<symbol id="icon-user-plus1" viewBox="0 0 32 28">
<title>user-plus1</title>
<path d="M11 14c-3.313 0-6-2.688-6-6s2.688-6 6-6 6 2.688 6 6-2.688 6-6 6zM26 16h5.5c0.266 0 0.5 0.234 0.5 0.5v3c0 0.266-0.234 0.5-0.5 0.5h-5.5v5.5c0 0.266-0.234 0.5-0.5 0.5h-3c-0.266 0-0.5-0.234-0.5-0.5v-5.5h-5.5c-0.266 0-0.5-0.234-0.5-0.5v-3c0-0.266 0.234-0.5 0.5-0.5h5.5v-5.5c0-0.266 0.234-0.5 0.5-0.5h3c0.266 0 0.5 0.234 0.5 0.5v5.5zM14.5 19.5c0 1.094 0.906 2 2 2h4v3.719c-0.766 0.562-1.734 0.781-2.672 0.781h-13.656c-2.5 0-4.172-1.5-4.172-4.047 0-3.531 0.828-8.953 5.406-8.953 0.25 0 0.422 0.109 0.609 0.266 1.531 1.172 3.016 1.906 4.984 1.906s3.453-0.734 4.984-1.906c0.187-0.156 0.359-0.266 0.609-0.266 1.328 0 2.5 0.5 3.391 1.5h-3.484c-1.094 0-2 0.906-2 2v3z"></path>
</symbol>
<symbol id="icon-user" viewBox="0 0 20 28">
<title>user</title>
<path d="M20 21.859c0 2.281-1.5 4.141-3.328 4.141h-13.344c-1.828 0-3.328-1.859-3.328-4.141 0-4.109 1.016-8.859 5.109-8.859 1.266 1.234 2.984 2 4.891 2s3.625-0.766 4.891-2c4.094 0 5.109 4.75 5.109 8.859zM16 8c0 3.313-2.688 6-6 6s-6-2.688-6-6 2.688-6 6-6 6 2.688 6 6z"></path>
</symbol>
<symbol id="icon-envelope-open-o" viewBox="0 0 28 28">
<title>envelope-open-o</title>
<path d="M23.031 14.266l0.609 0.797c0.172 0.219 0.125 0.516-0.078 0.688-1.563 1.219-5.156 3.984-5.313 4.109-1.109 0.906-2.609 2.156-4.234 2.141h-0.031c-1.625 0-3.125-1.234-4.234-2.141-0.172-0.141-3.641-2.812-5.172-4-0.219-0.172-0.266-0.469-0.094-0.688l0.578-0.812c0.172-0.234 0.5-0.281 0.719-0.094 1.062 0.828 2.562 1.984 4.781 3.687 0.781 0.594 2.328 2.047 3.422 2.047h0.031c1.094 0 2.641-1.453 3.422-2.047 2.297-1.766 3.828-2.938 4.891-3.781 0.219-0.172 0.531-0.125 0.703 0.094zM26 25.5v-14.5c-1.563-1.453-1.328-1.328-8.563-6.922-0.781-0.609-2.328-2.078-3.422-2.078h-0.031c-1.094 0-2.641 1.469-3.422 2.078-7.234 5.594-7 5.469-8.563 6.922v14.5c0 0.266 0.234 0.5 0.5 0.5h23c0.266 0 0.5-0.234 0.5-0.5zM28 11v14.5c0 1.375-1.125 2.5-2.5 2.5h-23c-1.375 0-2.5-1.125-2.5-2.5v-14.5c0-0.562 0.234-1.094 0.641-1.469 3.203-2.969 6.891-5.547 9.109-7.375 1.094-0.906 2.609-2.156 4.234-2.156h0.031c1.625 0 3.141 1.25 4.234 2.156 2.063 1.703 5.984 4.469 9.109 7.375 0.406 0.375 0.641 0.906 0.641 1.469z"></path>
</symbol>
<symbol id="icon-paper-plane-o" viewBox="0 0 28 28">
<title>paper-plane-o</title>
<path d="M27.563 0.172c0.328 0.234 0.484 0.609 0.422 1l-4 24c-0.047 0.297-0.234 0.547-0.5 0.703-0.141 0.078-0.313 0.125-0.484 0.125-0.125 0-0.25-0.031-0.375-0.078l-8.234-3.359-4.656 5.109c-0.187 0.219-0.453 0.328-0.734 0.328-0.125 0-0.25-0.016-0.359-0.063-0.391-0.156-0.641-0.531-0.641-0.938v-7.063l-7.375-3.016c-0.359-0.141-0.594-0.469-0.625-0.859-0.031-0.375 0.172-0.734 0.5-0.922l26-15c0.328-0.203 0.75-0.187 1.062 0.031zM22.219 23.594l3.453-20.672-22.406 12.922 5.25 2.141 13.484-9.984-7.469 12.453z"></path>
</symbol>
<symbol id="icon-envelope-o" viewBox="0 0 28 28">
<title>envelope-o</title>
<path d="M26 23.5v-12c-0.328 0.375-0.688 0.719-1.078 1.031-2.234 1.719-4.484 3.469-6.656 5.281-1.172 0.984-2.625 2.188-4.25 2.188h-0.031c-1.625 0-3.078-1.203-4.25-2.188-2.172-1.813-4.422-3.563-6.656-5.281-0.391-0.313-0.75-0.656-1.078-1.031v12c0 0.266 0.234 0.5 0.5 0.5h23c0.266 0 0.5-0.234 0.5-0.5zM26 7.078c0-0.391 0.094-1.078-0.5-1.078h-23c-0.266 0-0.5 0.234-0.5 0.5 0 1.781 0.891 3.328 2.297 4.438 2.094 1.641 4.188 3.297 6.266 4.953 0.828 0.672 2.328 2.109 3.422 2.109h0.031c1.094 0 2.594-1.437 3.422-2.109 2.078-1.656 4.172-3.313 6.266-4.953 1.016-0.797 2.297-2.531 2.297-3.859zM28 6.5v17c0 1.375-1.125 2.5-2.5 2.5h-23c-1.375 0-2.5-1.125-2.5-2.5v-17c0-1.375 1.125-2.5 2.5-2.5h23c1.375 0 2.5 1.125 2.5 2.5z"></path>
</symbol>
<symbol id="icon-paper-plane" viewBox="0 0 28 28">
<title>paper-plane</title>
<path d="M27.563 0.172c0.328 0.234 0.484 0.609 0.422 1l-4 24c-0.047 0.297-0.234 0.547-0.5 0.703-0.141 0.078-0.313 0.125-0.484 0.125-0.125 0-0.25-0.031-0.375-0.078l-7.078-2.891-3.781 4.609c-0.187 0.234-0.469 0.359-0.766 0.359-0.109 0-0.234-0.016-0.344-0.063-0.391-0.141-0.656-0.516-0.656-0.938v-5.453l13.5-16.547-16.703 14.453-6.172-2.531c-0.359-0.141-0.594-0.469-0.625-0.859-0.016-0.375 0.172-0.734 0.5-0.922l26-15c0.156-0.094 0.328-0.141 0.5-0.141 0.203 0 0.406 0.063 0.562 0.172z"></path>
</symbol>
<symbol id="icon-envelope-open" viewBox="0 0 28 28">
<title>envelope-open</title>
<path d="M28 10.219v15.281c0 1.375-1.125 2.5-2.5 2.5h-23c-1.375 0-2.5-1.125-2.5-2.5v-15.281c0-0.141 0.063-0.281 0.172-0.375 1.641-1.437 1.656-1.609 9.812-7.562 0.984-0.719 2.719-2.281 4.016-2.281s3.047 1.578 4.016 2.281c8.156 5.953 8.172 6.125 9.812 7.562 0.109 0.094 0.172 0.234 0.172 0.375zM19.187 19.359c2.438-1.766 4.141-3 5.391-3.938 0.219-0.156 0.266-0.469 0.094-0.688l-0.594-0.812c-0.172-0.219-0.484-0.266-0.703-0.094-1.234 0.906-2.922 2.156-5.359 3.906-0.969 0.703-2.719 2.266-4.016 2.266s-3.047-1.563-4.016-2.266c-2.438-1.766-4.125-3-5.359-3.906-0.219-0.172-0.531-0.125-0.703 0.094l-0.594 0.812c-0.172 0.219-0.125 0.531 0.094 0.688 1.25 0.938 2.953 2.172 5.391 3.938 1.219 0.875 3.141 2.641 5.187 2.641 2.063 0 4.031-1.797 5.187-2.641z"></path>
</symbol>
<symbol id="icon-envelope" viewBox="0 0 28 28">
<title>envelope</title>
<path d="M28 11.094v12.406c0 1.375-1.125 2.5-2.5 2.5h-23c-1.375 0-2.5-1.125-2.5-2.5v-12.406c0.469 0.516 1 0.969 1.578 1.359 2.594 1.766 5.219 3.531 7.766 5.391 1.313 0.969 2.938 2.156 4.641 2.156h0.031c1.703 0 3.328-1.188 4.641-2.156 2.547-1.844 5.172-3.625 7.781-5.391 0.562-0.391 1.094-0.844 1.563-1.359zM28 6.5c0 1.75-1.297 3.328-2.672 4.281-2.438 1.687-4.891 3.375-7.313 5.078-1.016 0.703-2.734 2.141-4 2.141h-0.031c-1.266 0-2.984-1.437-4-2.141-2.422-1.703-4.875-3.391-7.297-5.078-1.109-0.75-2.688-2.516-2.688-3.938 0-1.531 0.828-2.844 2.5-2.844h23c1.359 0 2.5 1.125 2.5 2.5z"></path>
</symbol>
<symbol id="icon-dollar" viewBox="0 0 16 28">
<title>dollar</title>
<path d="M15.281 18.516c0 3.187-2.281 5.703-5.594 6.25v2.734c0 0.281-0.219 0.5-0.5 0.5h-2.109c-0.266 0-0.5-0.219-0.5-0.5v-2.734c-3.656-0.516-5.656-2.703-5.734-2.797-0.156-0.187-0.172-0.453-0.031-0.641l1.609-2.109c0.078-0.109 0.219-0.172 0.359-0.187s0.281 0.031 0.375 0.141c0.031 0.016 2.219 2.109 4.984 2.109 1.531 0 3.187-0.812 3.187-2.578 0-1.5-1.844-2.234-3.953-3.078-2.812-1.109-6.312-2.516-6.312-6.438 0-2.875 2.25-5.25 5.516-5.875v-2.812c0-0.281 0.234-0.5 0.5-0.5h2.109c0.281 0 0.5 0.219 0.5 0.5v2.75c3.172 0.359 4.859 2.078 4.922 2.141 0.156 0.172 0.187 0.406 0.078 0.594l-1.266 2.281c-0.078 0.141-0.203 0.234-0.359 0.25-0.156 0.031-0.297-0.016-0.422-0.109-0.016-0.016-1.906-1.687-4.25-1.687-1.984 0-3.359 0.984-3.359 2.406 0 1.656 1.906 2.391 4.125 3.25 2.875 1.109 6.125 2.375 6.125 6.141z"></path>
</symbol>
</defs>
</svg>
