<!-- Generated by IcoMoon.io -->
<svg version="1.1" xmlns="http://www.w3.org/2000/svg" width="24" height="24" viewBox="0 0 24 24">
<title>visa</title>
<path fill="#142787" d="M17.445 8.623c-0.387-0.146-0.99-0.301-1.74-0.301-1.92 0-3.275 0.968-3.285 2.355-0.012 1.020 0.964 1.594 1.701 1.936 0.757 0.35 1.010 0.57 1.008 0.885-0.005 0.477-0.605 0.693-1.162 0.693-0.766 0-1.186-0.107-1.831-0.375l-0.239-0.111-0.271 1.598c0.466 0.195 1.306 0.362 2.175 0.375 2.041 0 3.375-0.961 3.391-2.439 0.016-0.813-0.51-1.43-1.621-1.938-0.674-0.33-1.094-0.551-1.094-0.886 0-0.296 0.359-0.612 1.109-0.612 0.645-0.010 1.096 0.129 1.455 0.273l0.18 0.081 0.271-1.544-0.047 0.010zM22.428 8.453h-1.5c-0.467 0-0.816 0.127-1.021 0.591l-2.885 6.534h2.041l0.408-1.070 2.49 0.002c0.061 0.25 0.24 1.068 0.24 1.068h1.799l-1.572-7.125zM9.66 8.393h1.943l-1.215 7.129h-1.944l1.216-7.131v0.002zM4.721 12.322l0.202 0.99 1.901-4.859h2.059l-3.061 7.115h-2.054l-1.68-6.026c-0.035-0.103-0.078-0.173-0.18-0.237-0.568-0.297-1.203-0.539-1.908-0.707l0.025-0.15h3.131c0.424 0.016 0.766 0.15 0.883 0.604l0.682 3.273v-0.003zM20.029 13.049l0.775-1.994c-0.010 0.020 0.16-0.412 0.258-0.68l0.133 0.615 0.449 2.057h-1.615v0.002z"></path>
</svg>
