<svg aria-hidden="true" style="position: absolute; width: 0; height: 0; overflow: hidden;" version="1.1" xmlns="http://www.w3.org/2000/svg" xmlns:xlink="http://www.w3.org/1999/xlink">
<defs>
<symbol id="icon-steering-wheel" viewBox="0 0 32 32">
<title>steering-wheel</title>
<path d="M16 0c-8.836 0-16 7.164-16 16s7.164 16 16 16 16-7.164 16-16-7.164-16-16-16zM16 4c5.207 0 9.605 3.354 11.266 8h-22.532c1.661-4.646 6.059-8 11.266-8zM16 18c-1.105 0-2-0.895-2-2s0.895-2 2-2 2 0.895 2 2-0.895 2-2 2zM4 16c5.465 0 9.891 5.266 9.984 11.797-5.656-0.969-9.984-5.871-9.984-11.797zM18.016 27.797c0.093-6.531 4.519-11.797 9.984-11.797 0 5.926-4.328 10.828-9.984 11.797z"></path>
</symbol>
<symbol id="icon-cancel-circle" viewBox="0 0 32 32">
<title>cancel-circle</title>
<path d="M16 0c-8.837 0-16 7.163-16 16s7.163 16 16 16 16-7.163 16-16-7.163-16-16-16zM16 29c-7.18 0-13-5.82-13-13s5.82-13 13-13 13 5.82 13 13-5.82 13-13 13z"></path>
<path d="M21 8l-5 5-5-5-3 3 5 5-5 5 3 3 5-5 5 5 3-3-5-5 5-5z"></path>
</symbol>
<symbol id="icon-map" viewBox="0 0 32 32">
<title>map</title>
<path d="M21 6l-10-4-11 4v24l11-4 10 4 11-4v-24l-11 4zM12 4.554l8 3.2v19.692l-8-3.2v-19.692zM2 7.401l8-2.909v19.744l-8 2.909v-19.744zM30 24.599l-8 2.909v-19.744l8-2.909v19.744z"></path>
</symbol>
<symbol id="icon-map1" viewBox="0 0 32 32">
<title>map1</title>
<path d="M0 6l10-4v24l-10 4z"></path>
<path d="M12 1l10 6v23l-10-5z"></path>
<path d="M24 7l8-6v24l-8 6z"></path>
</symbol>
<symbol id="icon-compass" viewBox="0 0 32 32">
<title>compass</title>
<path d="M17 32c-0.072 0-0.144-0.008-0.217-0.024-0.458-0.102-0.783-0.507-0.783-0.976v-15h-15c-0.469 0-0.875-0.326-0.976-0.783s0.129-0.925 0.553-1.123l30-14c0.381-0.178 0.833-0.098 1.13 0.199s0.377 0.749 0.199 1.13l-14 30c-0.167 0.358-0.524 0.577-0.906 0.577zM5.508 14h11.492c0.552 0 1 0.448 1 1v11.492l10.931-23.423-23.423 10.931z"></path>
</symbol>
<symbol id="icon-location1" viewBox="0 0 32 32">
<title>location1</title>
<path d="M16 0c-5.523 0-10 4.477-10 10 0 10 10 22 10 22s10-12 10-22c0-5.523-4.477-10-10-10zM16 16.125c-3.383 0-6.125-2.742-6.125-6.125s2.742-6.125 6.125-6.125 6.125 2.742 6.125 6.125-2.742 6.125-6.125 6.125zM12.125 10c0-2.14 1.735-3.875 3.875-3.875s3.875 1.735 3.875 3.875c0 2.14-1.735 3.875-3.875 3.875s-3.875-1.735-3.875-3.875z"></path>
</symbol>
<symbol id="icon-location2" viewBox="0 0 32 32">
<title>location2</title>
<path d="M16 0c-5.523 0-10 4.477-10 10 0 10 10 22 10 22s10-12 10-22c0-5.523-4.477-10-10-10zM16 16c-3.314 0-6-2.686-6-6s2.686-6 6-6 6 2.686 6 6-2.686 6-6 6z"></path>
</symbol>
<symbol id="icon-man-woman" viewBox="0 0 32 32">
<title>man-woman</title>
<path d="M8 3c0 1.657-1.343 3-3 3s-3-1.343-3-3c0-1.657 1.343-3 3-3s3 1.343 3 3z"></path>
<path d="M26 3c0 1.657-1.343 3-3 3s-3-1.343-3-3c0-1.657 1.343-3 3-3s3 1.343 3 3z"></path>
<path d="M8 8h-6c-1.105 0-2 0.895-2 2v10h2v12h2.5v-12h1v12h2.5v-12h2v-10c0-1.105-0.895-2-2-2z"></path>
<path d="M30.469 16l1.531-1.109-4.165-6.441c-0.185-0.281-0.499-0.45-0.835-0.45h-8c-0.336 0-0.65 0.169-0.835 0.45l-4.165 6.441 1.531 1.109 3.458-4.487 1.202 2.804-4.191 7.683h3.833l0.667 10h2v-10h1v10h2l0.667-10h3.833l-4.191-7.683 1.202-2.804 3.458 4.487z"></path>
</symbol>
<symbol id="icon-crop" viewBox="0 0 24 24">
<title>crop</title>
<path d="M7.077 7.077l8.932-0.077c0.129 0 0.257 0.027 0.373 0.075 0.122 0.050 0.232 0.125 0.325 0.218s0.167 0.203 0.218 0.325c0.048 0.116 0.075 0.245 0.075 0.382v9h-9c-0.137 0-0.266-0.027-0.382-0.075-0.122-0.050-0.232-0.125-0.325-0.218s-0.167-0.203-0.218-0.325c-0.048-0.116-0.075-0.245-0.075-0.373zM1.009 7.13l4.068-0.035-0.077 8.896c0 0.413 0.081 0.801 0.228 1.156 0.152 0.368 0.375 0.698 0.651 0.974s0.606 0.499 0.974 0.651c0.354 0.147 0.742 0.228 1.147 0.228h9v4c0 0.552 0.448 1 1 1s1-0.448 1-1v-4h4c0.552 0 1-0.448 1-1s-0.448-1-1-1h-4v-9c0-0.405-0.081-0.793-0.228-1.148-0.152-0.368-0.375-0.698-0.651-0.974s-0.606-0.499-0.974-0.651c-0.354-0.146-0.742-0.227-1.156-0.227l-8.896 0.077 0.035-4.068c0.005-0.553-0.439-1.004-0.991-1.009s-1.004 0.439-1.009 0.991l-0.036 4.103-4.103 0.036c-0.552 0.005-0.996 0.456-0.991 1.009s0.456 0.996 1.009 0.991z"></path>
</symbol>
<symbol id="icon-googlepodcasts" viewBox="0 0 24 24">
<title>googlepodcasts</title>
<path fill="#4285f4" style="fill: var(--color1, #4285f4)" d="M10.5 7.636v8.727h3v-8.727zM3 11.182c-0 0.828-0.672 1.5-1.5 1.5s-1.5-0.672-1.5-1.5c0-0 0-0 0-0.001v0c0-0.828 0.672-1.5 1.5-1.5s1.5 0.672 1.5 1.5c0 0 0 0 0 0.001v-0z"></path>
<path fill="#4285f4" style="fill: var(--color1, #4285f4)" d="M3 12.818c-0 0.828-0.672 1.5-1.5 1.5s-1.5-0.672-1.5-1.5c0-0 0-0 0-0.001v0c0-0.828 0.672-1.5 1.5-1.5s1.5 0.672 1.5 1.5c0 0 0 0 0 0.001v-0z"></path>
<path fill="#4285f4" style="fill: var(--color1, #4285f4)" d="M0 11.182h3v1.636h-3v-1.636zM24 12.818c-0 0.828-0.672 1.5-1.5 1.5s-1.5-0.672-1.5-1.5c0-0 0-0 0-0.001v0c0-0.828 0.672-1.5 1.5-1.5s1.5 0.672 1.5 1.5c0 0 0 0 0 0.001v-0z"></path>
<path fill="#4285f4" style="fill: var(--color1, #4285f4)" d="M24 11.182c-0 0.828-0.672 1.5-1.5 1.5s-1.5-0.672-1.5-1.5c0-0 0-0 0-0.001v0c0-0.828 0.672-1.5 1.5-1.5s1.5 0.672 1.5 1.5c0 0 0 0 0 0.001v-0z"></path>
<path fill="#4285f4" style="fill: var(--color1, #4285f4)" d="M24 12.818h-3v-1.636h3v1.636zM8.182 16.091c-0 0.828-0.672 1.5-1.5 1.5s-1.5-0.672-1.5-1.5c0-0 0-0 0-0.001v0c0-0.828 0.672-1.5 1.5-1.5s1.5 0.672 1.5 1.5c0 0 0 0 0 0.001v-0z"></path>
<path fill="#4285f4" style="fill: var(--color1, #4285f4)" d="M8.182 17.727c-0 0.828-0.672 1.5-1.5 1.5s-1.5-0.672-1.5-1.5c0-0 0-0 0-0.001v0c0-0.828 0.672-1.5 1.5-1.5s1.5 0.672 1.5 1.5c0 0 0 0 0 0.001v-0z"></path>
<path fill="#4285f4" style="fill: var(--color1, #4285f4)" d="M5.182 16.091h3v1.636h-3v-1.636zM8.182 6.273c-0 0.828-0.672 1.5-1.5 1.5s-1.5-0.672-1.5-1.5c0-0 0-0 0-0.001v0c0-0.828 0.672-1.5 1.5-1.5s1.5 0.672 1.5 1.5c0 0 0 0 0 0.001v-0zM8.182 11.591c-0 0.828-0.672 1.5-1.5 1.5s-1.5-0.672-1.5-1.5c0-0 0-0 0-0.001v0c0-0.828 0.672-1.5 1.5-1.5s1.5 0.672 1.5 1.5c0 0 0 0 0 0.001v-0z"></path>
<path fill="#4285f4" style="fill: var(--color1, #4285f4)" d="M5.182 6.273h3v5.352h-3v-5.352zM18.818 7.909c-0 0.828-0.672 1.5-1.5 1.5s-1.5-0.672-1.5-1.5c0-0 0-0 0-0.001v0c0-0.828 0.672-1.5 1.5-1.5s1.5 0.672 1.5 1.5c0 0 0 0 0 0.001v-0z"></path>
<path fill="#4285f4" style="fill: var(--color1, #4285f4)" d="M18.818 6.273c-0 0.828-0.672 1.5-1.5 1.5s-1.5-0.672-1.5-1.5c0-0 0-0 0-0.001v0c0-0.828 0.672-1.5 1.5-1.5s1.5 0.672 1.5 1.5c0 0 0 0 0 0.001v-0z"></path>
<path fill="#4285f4" style="fill: var(--color1, #4285f4)" d="M18.818 7.909h-3v-1.636h3v1.636zM13.5 3.136c-0 0.828-0.672 1.5-1.5 1.5s-1.5-0.672-1.5-1.5c0-0 0-0 0-0.001v0c0-0.828 0.672-1.5 1.5-1.5s1.5 0.672 1.5 1.5c0 0 0 0 0 0.001v-0z"></path>
<path fill="#4285f4" style="fill: var(--color1, #4285f4)" d="M13.5 1.5c-0 0.828-0.672 1.5-1.5 1.5s-1.5-0.672-1.5-1.5c0-0 0-0 0-0.001v0c0-0.828 0.672-1.5 1.5-1.5s1.5 0.672 1.5 1.5c0 0 0 0 0 0.001v-0z"></path>
<path fill="#4285f4" style="fill: var(--color1, #4285f4)" d="M13.5 3.136h-3v-1.636h3v1.636zM13.5 22.5c-0 0.828-0.672 1.5-1.5 1.5s-1.5-0.672-1.5-1.5c0-0 0-0 0-0.001v0c0-0.828 0.672-1.5 1.5-1.5s1.5 0.672 1.5 1.5c0 0 0 0 0 0.001v-0z"></path>
<path fill="#4285f4" style="fill: var(--color1, #4285f4)" d="M13.5 20.864c-0 0.828-0.672 1.5-1.5 1.5s-1.5-0.672-1.5-1.5c0-0 0-0 0-0.001v0c0-0.828 0.672-1.5 1.5-1.5s1.5 0.672 1.5 1.5c0 0 0 0 0 0.001v-0z"></path>
<path fill="#4285f4" style="fill: var(--color1, #4285f4)" d="M13.5 22.5h-3v-1.636h3v1.636zM18.818 17.727c-0 0.828-0.672 1.5-1.5 1.5s-1.5-0.672-1.5-1.5c0-0 0-0 0-0.001v0c0-0.828 0.672-1.5 1.5-1.5s1.5 0.672 1.5 1.5c0 0 0 0 0 0.001v-0zM18.818 12.409c-0 0.828-0.672 1.5-1.5 1.5s-1.5-0.672-1.5-1.5c0-0 0-0 0-0.001v0c0-0.828 0.672-1.5 1.5-1.5s1.5 0.672 1.5 1.5c0 0 0 0 0 0.001v-0z"></path>
<path fill="#4285f4" style="fill: var(--color1, #4285f4)" d="M18.818 17.727h-3v-5.318h3v5.318zM13.5 7.636c-0 0.828-0.672 1.5-1.5 1.5s-1.5-0.672-1.5-1.5c0-0 0-0 0-0.001v0c0-0.828 0.672-1.5 1.5-1.5s1.5 0.672 1.5 1.5c0 0 0 0 0 0.001v-0zM13.5 16.364c-0 0.828-0.672 1.5-1.5 1.5s-1.5-0.672-1.5-1.5c0-0 0-0 0-0.001v0c0-0.828 0.672-1.5 1.5-1.5s1.5 0.672 1.5 1.5c0 0 0 0 0 0.001v-0z"></path>
</symbol>
<symbol id="icon-googleplay" viewBox="0 0 24 24">
<title>googleplay</title>
<path fill="#607d8b" style="fill: var(--color2, #607d8b)" d="M1.22 0c-0.030 0.093-0.060 0.185-0.060 0.308v23.229c0 0.217 0.061 0.34 0.184 0.463l11.415-12.093-11.539-11.907zM13.529 12.708l2.951 3.045-4.213 2.4s-5.355 3.044-8.308 4.739l9.57-10.184zM14.33 11.877l3.166 3.292c0.496-0.276 4.371-2.492 4.924-2.8 0.584-0.338 0.525-0.8 0.029-1.046-0.459-0.255-4.334-2.475-4.92-2.835l-3.199 3.389zM13.527 11.077l2.984-3.169-4.259-2.431s-6.943-3.972-9.253-5.298l10.528 10.898z"></path>
</symbol>
<symbol id="icon-google" viewBox="0 0 24 24">
<title>google</title>
<path fill="#4285f4" style="fill: var(--color1, #4285f4)" d="M12.24 10.285v4.115h6.806c-0.275 1.765-2.056 5.174-6.806 5.174-4.095 0-7.439-3.389-7.439-7.574s3.345-7.574 7.439-7.574c2.33 0 3.891 0.989 4.785 1.849l3.254-3.138c-2.090-1.951-4.8-3.137-8.039-3.137-6.635 0-12 5.365-12 12s5.365 12 12 12c6.926 0 11.52-4.869 11.52-11.726 0-0.788-0.085-1.39-0.189-1.989h-11.331z"></path>
</symbol>
<symbol id="icon-speedometer" viewBox="0 0 32 32">
<title>speedometer</title>
<path d="M16-0.034c-8.841 0-16.035 7.192-16.035 16.034s7.194 16.034 16.035 16.034 16.035-7.192 16.035-16.034-7.194-16.034-16.035-16.034zM16 30.966c-8.252 0-14.965-6.714-14.965-14.966s6.713-14.966 14.965-14.966 14.965 6.714 14.965 14.966-6.713 14.966-14.965 14.966zM16.5 6.053c0.305 0 0.553-0.247 0.553-0.553v-2c0-0.306-0.248-0.553-0.553-0.553s-0.553 0.247-0.553 0.553v2c0 0.306 0.248 0.553 0.553 0.553zM5.5 14.947h-2c-0.305 0-0.553 0.247-0.553 0.553s0.248 0.553 0.553 0.553h2c0.305 0 0.553-0.247 0.553-0.553s-0.248-0.553-0.553-0.553zM25.947 15.5c0 0.306 0.248 0.553 0.553 0.553h2c0.305 0 0.553-0.247 0.553-0.553s-0.248-0.553-0.553-0.553h-2c-0.305 0-0.553 0.247-0.553 0.553zM8.575 10.128c0.142 0 0.283-0.054 0.391-0.162 0.216-0.216 0.216-0.565 0-0.781l-1.575-1.576c-0.216-0.217-0.565-0.217-0.781 0s-0.216 0.565 0 0.781l1.575 1.575c0.107 0.109 0.249 0.163 0.39 0.163zM23.891 21.109c-0.216-0.217-0.565-0.217-0.781 0s-0.216 0.565 0 0.781l1.5 1.5c0.108 0.108 0.249 0.162 0.391 0.162s0.283-0.054 0.391-0.162c0.216-0.216 0.216-0.565 0-0.781l-1.501-1.5zM24.891 7.891c0.216-0.216 0.216-0.565 0-0.781s-0.565-0.217-0.781 0l-1.575 1.575c-0.216 0.216-0.216 0.565 0 0.781 0.108 0.108 0.249 0.162 0.391 0.162s0.283-0.054 0.391-0.162l1.574-1.575zM8.609 21.609l-1.5 1.5c-0.216 0.216-0.216 0.565 0 0.781 0.108 0.108 0.249 0.162 0.391 0.162s0.283-0.054 0.391-0.162l1.5-1.5c0.216-0.216 0.216-0.565 0-0.781s-0.566-0.216-0.782 0zM19.5 24h-7c-0.889-0.034-1.535 0.611-1.535 1.5v0.957c0 0.898 0.674 1.603 1.535 1.543h7c0.86 0.060 1.535-0.645 1.535-1.543v-0.957c0-0.889-0.646-1.534-1.535-1.5zM19.965 26.457c0 0.257-0.146 0.534-0.465 0.568h-7c-0.32-0.034-0.465-0.312-0.465-0.025v-0.957c0-0.839 0.169-1.009 0.465-1.043h7c0.296 0.034 0.465 0.204 0.465 0.5v0.957zM16 18.667c0.712 0 1.382-0.277 1.885-0.781 0.911-0.911 1.024-2.32 0.34-3.355l2.653-2.653c0.208-0.209 0.208-0.547 0-0.756-0.209-0.209-0.547-0.209-0.756 0l-2.656 2.656c-1.025-0.655-2.473-0.543-3.351 0.336-1.040 1.040-1.040 2.731 0 3.771 0.503 0.505 1.173 0.782 1.885 0.782zM15.058 15.058c0.251-0.252 0.586-0.391 0.942-0.391s0.691 0.139 0.943 0.391c0.52 0.52 0.52 1.365 0 1.885-0.503 0.504-1.381 0.504-1.885 0-0.52-0.52-0.52-1.366 0-1.885z"></path>
</symbol>
<symbol id="icon-key" viewBox="0 0 32 32">
<title>key</title>
<path d="M18.532 19.468l-4.532 4.532h-3v3h-3v3h-5v-5l10.532-10.532c-0.344-0.924-0.532-1.924-0.532-2.968 0-4.694 3.806-8.5 8.5-8.5s8.5 3.806 8.5 8.5c0 4.694-3.806 8.5-8.5 8.5-1.044 0-2.044-0.188-2.968-0.532v0 0zM13.999 15.501l-9.999 9.999v3.5h3v-3h3v-3h3.5l3.999-3.999c-1.485-0.794-2.706-2.015-3.5-3.5v0 0zM29 11.5c0-4.142-3.358-7.5-7.5-7.5s-7.5 3.358-7.5 7.5c0 4.142 3.358 7.5 7.5 7.5s7.5-3.358 7.5-7.5v0 0zM27 9v0 0c0 1.657-1.343 3-3 3s-3-1.343-3-3c0-1.657 1.343-3 3-3s3 1.343 3 3zM26 9c0-1.105-0.895-2-2-2s-2 0.895-2 2c0 1.105 0.895 2 2 2s2-0.895 2-2v0 0z"></path>
</symbol>
<symbol id="icon-map1" viewBox="0 0 32 32">
<title>map1</title>
<path d="M0 6l10-4v24l-10 4z"></path>
<path d="M12 1l10 6v23l-10-5z"></path>
<path d="M24 7l8-6v24l-8 6z"></path>
</symbol>
<symbol id="icon-compass" viewBox="0 0 32 32">
<title>compass</title>
<path d="M17 32c-0.072 0-0.144-0.008-0.217-0.024-0.458-0.102-0.783-0.507-0.783-0.976v-15h-15c-0.469 0-0.875-0.326-0.976-0.783s0.129-0.925 0.553-1.123l30-14c0.381-0.178 0.833-0.098 1.13 0.199s0.377 0.749 0.199 1.13l-14 30c-0.167 0.358-0.524 0.577-0.906 0.577zM5.508 14h11.492c0.552 0 1 0.448 1 1v11.492l10.931-23.423-23.423 10.931z"></path>
</symbol>
<symbol id="icon-local_gas_station" viewBox="0 0 24 24">
<title>local_gas_station</title>
<path d="M18 9.984c0.563 0 0.984-0.422 0.984-0.984s-0.422-0.984-0.984-0.984-0.984 0.422-0.984 0.984 0.422 0.984 0.984 0.984zM12 9.984v-4.969h-6v4.969h6zM19.781 7.219c0.469 0.469 0.703 1.078 0.703 1.781v9.516c0 1.359-1.125 2.484-2.484 2.484s-2.484-1.125-2.484-2.484v-5.016h-1.5v7.5h-10.031v-15.984c0-1.078 0.938-2.016 2.016-2.016h6c1.078 0 2.016 0.938 2.016 2.016v6.984h0.984c1.078 0 2.016 0.938 2.016 2.016v4.5c0 0.563 0.422 0.984 0.984 0.984s0.984-0.422 0.984-0.984v-7.219c-0.328 0.141-0.609 0.188-0.984 0.188-1.359 0-2.484-1.125-2.484-2.484 0-1.078 0.656-1.969 1.594-2.344l-2.109-2.109 1.078-1.031z"></path>
</symbol>
<symbol id="icon-local_parking" viewBox="0 0 24 24">
<title>local_parking</title>
<path d="M13.219 11.016c1.078 0 1.969-0.938 1.969-2.016s-0.891-2.016-1.969-2.016h-3.234v4.031h3.234zM12.984 3c3.328 0 6 2.672 6 6s-2.672 6-6 6h-3v6h-3.984v-18h6.984z"></path>
</symbol>
<symbol id="icon-crop_landscape" viewBox="0 0 24 24">
<title>crop_landscape</title>
<path d="M18.984 17.016v-10.031h-13.969v10.031h13.969zM18.984 5.016c1.078 0 2.016 0.891 2.016 1.969v10.031c0 1.078-0.938 1.969-2.016 1.969h-13.969c-1.078 0-2.016-0.891-2.016-1.969v-10.031c0-1.078 0.938-1.969 2.016-1.969h13.969z"></path>
</symbol>
<symbol id="icon-automobile" viewBox="0 0 32 28">
<title>automobile</title>
<path d="M7.5 17c0-1.375-1.125-2.5-2.5-2.5s-2.5 1.125-2.5 2.5 1.125 2.5 2.5 2.5 2.5-1.125 2.5-2.5zM8.062 12h15.875l-1.391-5.578c-0.047-0.172-0.359-0.422-0.547-0.422h-12c-0.187 0-0.5 0.25-0.547 0.422zM29.5 17c0-1.375-1.125-2.5-2.5-2.5s-2.5 1.125-2.5 2.5 1.125 2.5 2.5 2.5 2.5-1.125 2.5-2.5zM32 15.5v6c0 0.281-0.219 0.5-0.5 0.5h-1.5v2c0 1.656-1.344 3-3 3s-3-1.344-3-3v-2h-16v2c0 1.656-1.344 3-3 3s-3-1.344-3-3v-2h-1.5c-0.281 0-0.5-0.219-0.5-0.5v-6c0-1.937 1.563-3.5 3.5-3.5h0.438l1.641-6.547c0.484-1.969 2.391-3.453 4.422-3.453h12c2.031 0 3.938 1.484 4.422 3.453l1.641 6.547h0.438c1.937 0 3.5 1.563 3.5 3.5z"></path>
</symbol>
<symbol id="icon-google-wallet" viewBox="0 0 28 28">
<title>google-wallet</title>
<path d="M6.891 10.5c0.313 0 0.625 0.156 0.812 0.406 2.734 3.734 4.641 7.734 5.656 12.094h-6.969c-1.25-4.344-3.094-8.313-5.734-11.703-0.25-0.328 0-0.797 0.406-0.797h5.828zM15.625 16.078c-0.516 2.109-1.172 4.156-1.953 6.141-0.828-3.266-2.156-6.328-4-9.281 0.406-2.266 0.641-4.594 0.688-7.016 2.203 3.547 3.953 6.922 5.266 10.156zM17.172 5c4.672 6.438 8.141 14.375 8.891 23h-7.047c-0.516-8.344-4.359-16.25-8.641-23h6.797zM28 14c0 4.344-0.594 8.906-1.578 12.688-0.688-5.781-2.594-11.531-5.609-16.922-0.266-3.156-0.828-6.219-1.656-9.125-0.078-0.328 0.156-0.641 0.484-0.641h5.609c0.438 0 0.844 0.297 0.953 0.719 1.188 4.219 1.797 8.687 1.797 13.281z"></path>
</symbol>
<symbol id="icon-google-plus-square" viewBox="0 0 24 28">
<title>google-plus-square</title>
<path d="M14.328 14.141c0-0.391-0.047-0.703-0.094-1h-5.656v2.063h3.391c-0.125 0.875-1.016 2.578-3.391 2.578-2.063 0-3.734-1.687-3.734-3.781s1.672-3.781 3.734-3.781c1.156 0 1.937 0.484 2.391 0.922l1.625-1.578c-1.047-0.969-2.406-1.563-4.016-1.563-3.328 0-6 2.688-6 6s2.672 6 6 6c3.453 0 5.75-2.438 5.75-5.859zM19.719 14.859h1.703v-1.719h-1.703v-1.719h-1.719v1.719h-1.719v1.719h1.719v1.719h1.719v-1.719zM24 6.5v15c0 2.484-2.016 4.5-4.5 4.5h-15c-2.484 0-4.5-2.016-4.5-4.5v-15c0-2.484 2.016-4.5 4.5-4.5h15c2.484 0 4.5 2.016 4.5 4.5z"></path>
</symbol>
<symbol id="icon-google-plus" viewBox="0 0 36 28">
<title>google-plus</title>
<path d="M22.453 14.266c0 6.547-4.391 11.188-11 11.188-6.328 0-11.453-5.125-11.453-11.453s5.125-11.453 11.453-11.453c3.094 0 5.672 1.125 7.672 3l-3.109 2.984c-0.844-0.812-2.328-1.766-4.562-1.766-3.906 0-7.094 3.234-7.094 7.234s3.187 7.234 7.094 7.234c4.531 0 6.234-3.266 6.5-4.937h-6.5v-3.938h10.813c0.109 0.578 0.187 1.156 0.187 1.906zM36 12.359v3.281h-3.266v3.266h-3.281v-3.266h-3.266v-3.281h3.266v-3.266h3.281v3.266h3.266z"></path>
</symbol>
<symbol id="icon-briefcase" viewBox="0 0 28 28">
<title>briefcase</title>
<path d="M10 4h8v-2h-8v2zM28 14v7.5c0 1.375-1.125 2.5-2.5 2.5h-23c-1.375 0-2.5-1.125-2.5-2.5v-7.5h10.5v2.5c0 0.547 0.453 1 1 1h5c0.547 0 1-0.453 1-1v-2.5h10.5zM16 14v2h-4v-2h4zM28 6.5v6h-28v-6c0-1.375 1.125-2.5 2.5-2.5h5.5v-2.5c0-0.828 0.672-1.5 1.5-1.5h9c0.828 0 1.5 0.672 1.5 1.5v2.5h5.5c1.375 0 2.5 1.125 2.5 2.5z"></path>
</symbol>
<symbol id="icon-sign-out" viewBox="0 0 25 28">
<title>sign-out</title>
<path d="M10 22.5c0 0.438 0.203 1.5-0.5 1.5h-5c-2.484 0-4.5-2.016-4.5-4.5v-11c0-2.484 2.016-4.5 4.5-4.5h5c0.266 0 0.5 0.234 0.5 0.5 0 0.438 0.203 1.5-0.5 1.5h-5c-1.375 0-2.5 1.125-2.5 2.5v11c0 1.375 1.125 2.5 2.5 2.5h4.5c0.391 0 1-0.078 1 0.5zM24.5 14c0 0.266-0.109 0.516-0.297 0.703l-8.5 8.5c-0.187 0.187-0.438 0.297-0.703 0.297-0.547 0-1-0.453-1-1v-4.5h-7c-0.547 0-1-0.453-1-1v-6c0-0.547 0.453-1 1-1h7v-4.5c0-0.547 0.453-1 1-1 0.266 0 0.516 0.109 0.703 0.297l8.5 8.5c0.187 0.187 0.297 0.438 0.297 0.703z"></path>
</symbol>
<symbol id="icon-sign-in" viewBox="0 0 24 28">
<title>sign-in</title>
<path d="M18.5 14c0 0.266-0.109 0.516-0.297 0.703l-8.5 8.5c-0.187 0.187-0.438 0.297-0.703 0.297-0.547 0-1-0.453-1-1v-4.5h-7c-0.547 0-1-0.453-1-1v-6c0-0.547 0.453-1 1-1h7v-4.5c0-0.547 0.453-1 1-1 0.266 0 0.516 0.109 0.703 0.297l8.5 8.5c0.187 0.187 0.297 0.438 0.297 0.703zM24 8.5v11c0 2.484-2.016 4.5-4.5 4.5h-5c-0.266 0-0.5-0.234-0.5-0.5 0-0.438-0.203-1.5 0.5-1.5h5c1.375 0 2.5-1.125 2.5-2.5v-11c0-1.375-1.125-2.5-2.5-2.5h-4.5c-0.391 0-1 0.078-1-0.5 0-0.438-0.203-1.5 0.5-1.5h5c2.484 0 4.5 2.016 4.5 4.5z"></path>
</symbol>
<symbol id="icon-map-o" viewBox="0 0 32 28">
<title>map-o</title>
<path d="M31.563 0.172c0.266 0.187 0.438 0.5 0.438 0.828v22c0 0.406-0.25 0.781-0.625 0.922l-10 4c-0.25 0.109-0.5 0.109-0.75 0l-9.625-3.844-9.625 3.844c-0.125 0.063-0.25 0.078-0.375 0.078-0.203 0-0.391-0.063-0.562-0.172-0.266-0.187-0.438-0.5-0.438-0.828v-22c0-0.406 0.25-0.781 0.625-0.922l10-4c0.25-0.109 0.5-0.109 0.75 0l9.625 3.844 9.625-3.844c0.313-0.125 0.656-0.094 0.938 0.094zM11.5 2.281v19.844l9 3.594v-19.844zM2 5.672v19.844l8.5-3.391v-19.844zM30 22.328v-19.844l-8.5 3.391v19.844z"></path>
</symbol>
<symbol id="icon-map-signs" viewBox="0 0 28 28">
<title>map-signs</title>
<path d="M27.266 4.641c0.203 0.203 0.203 0.516 0 0.719l-2.203 2.203c-0.281 0.281-0.672 0.438-1.062 0.438h-21c-0.547 0-1-0.453-1-1v-4c0-0.547 0.453-1 1-1h9v-1c0-0.547 0.453-1 1-1h2c0.547 0 1 0.453 1 1v1h8c0.391 0 0.781 0.156 1.062 0.438zM12 19h4v8c0 0.547-0.453 1-1 1h-2c-0.547 0-1-0.453-1-1v-8zM25 12c0.547 0 1 0.453 1 1v4c0 0.547-0.453 1-1 1h-21c-0.391 0-0.781-0.156-1.062-0.438l-2.203-2.203c-0.203-0.203-0.203-0.516 0-0.719l2.203-2.203c0.281-0.281 0.672-0.438 1.062-0.438h8v-3h4v3h9z"></path>
</symbol>
<symbol id="icon-map2" viewBox="0 0 28 28">
<title>map2</title>
<path d="M8 0c0.266 0 0.5 0.234 0.5 0.5v23c0 0.187-0.109 0.359-0.266 0.438l-7.5 4c-0.078 0.047-0.156 0.063-0.234 0.063-0.266 0-0.5-0.234-0.5-0.5v-23c0-0.187 0.109-0.359 0.266-0.438l7.5-4c0.078-0.047 0.156-0.063 0.234-0.063zM27.5 0c0.266 0 0.5 0.234 0.5 0.5v23c0 0.187-0.109 0.359-0.266 0.438l-7.5 4c-0.078 0.047-0.156 0.063-0.234 0.063-0.266 0-0.5-0.234-0.5-0.5v-23c0-0.187 0.109-0.359 0.266-0.438l7.5-4c0.078-0.047 0.156-0.063 0.234-0.063zM10 0c0.078 0 0.156 0.016 0.219 0.047l8 4c0.172 0.094 0.281 0.266 0.281 0.453v23c0 0.266-0.234 0.5-0.5 0.5-0.078 0-0.156-0.016-0.219-0.047l-8-4c-0.172-0.094-0.281-0.266-0.281-0.453v-23c0-0.266 0.234-0.5 0.5-0.5z"></path>
</symbol>
<symbol id="icon-map-marker2" viewBox="0 0 16 28">
<title>map-marker2</title>
<path d="M12 10c0-2.203-1.797-4-4-4s-4 1.797-4 4 1.797 4 4 4 4-1.797 4-4zM16 10c0 0.953-0.109 1.937-0.516 2.797l-5.688 12.094c-0.328 0.688-1.047 1.109-1.797 1.109s-1.469-0.422-1.781-1.109l-5.703-12.094c-0.406-0.859-0.516-1.844-0.516-2.797 0-4.422 3.578-8 8-8s8 3.578 8 8z"></path>
</symbol>
<symbol id="icon-bed" viewBox="0 0 32 28">
<title>bed</title>
<path d="M4 16h27c0.547 0 1 0.453 1 1v7h-4v-4h-24v4h-4v-19c0-0.547 0.453-1 1-1h2c0.547 0 1 0.453 1 1v11zM13 11c0-2.203-1.797-4-4-4s-4 1.797-4 4 1.797 4 4 4 4-1.797 4-4zM32 15v-1c0-3.313-2.688-6-6-6h-11c-0.547 0-1 0.453-1 1v6h18z"></path>
</symbol>
<symbol id="icon-shower" viewBox="0 0 30 28">
<title>shower</title>
<path d="M22.391 3.891c0.203 0.203 0.203 0.516 0 0.719l-9.781 9.781c-0.203 0.203-0.516 0.203-0.719 0l-1.281-1.281c-0.203-0.203-0.203-0.516 0-0.719l0.688-0.688c-1.516-1.906-1.703-4.516-0.547-6.594-0.719-0.688-1.687-1.109-2.75-1.109-2.203 0-4 1.797-4 4v20h-4v-20c0-4.406 3.594-8 8-8 2.25 0 4.281 0.938 5.734 2.438 1.969-0.797 4.25-0.5 5.969 0.859l0.688-0.688c0.203-0.203 0.516-0.203 0.719 0zM21 8c0.547 0 1 0.453 1 1s-0.453 1-1 1-1-0.453-1-1 0.453-1 1-1zM25 10c-0.547 0-1-0.453-1-1s0.453-1 1-1 1 0.453 1 1-0.453 1-1 1zM29 8c0.547 0 1 0.453 1 1s-0.453 1-1 1-1-0.453-1-1 0.453-1 1-1zM19 10c0.547 0 1 0.453 1 1s-0.453 1-1 1-1-0.453-1-1 0.453-1 1-1zM22 11c0-0.547 0.453-1 1-1s1 0.453 1 1-0.453 1-1 1-1-0.453-1-1zM27 10c0.547 0 1 0.453 1 1s-0.453 1-1 1-1-0.453-1-1 0.453-1 1-1zM17 12c0.547 0 1 0.453 1 1s-0.453 1-1 1-1-0.453-1-1 0.453-1 1-1zM21 14c-0.547 0-1-0.453-1-1s0.453-1 1-1 1 0.453 1 1-0.453 1-1 1zM25 12c0.547 0 1 0.453 1 1s-0.453 1-1 1-1-0.453-1-1 0.453-1 1-1zM19 16c-0.547 0-1-0.453-1-1s0.453-1 1-1 1 0.453 1 1-0.453 1-1 1zM23 14c0.547 0 1 0.453 1 1s-0.453 1-1 1-1-0.453-1-1 0.453-1 1-1zM17 16c0.547 0 1 0.453 1 1s-0.453 1-1 1-1-0.453-1-1 0.453-1 1-1zM21 16c0.547 0 1 0.453 1 1s-0.453 1-1 1-1-0.453-1-1 0.453-1 1-1zM19 18c0.547 0 1 0.453 1 1s-0.453 1-1 1-1-0.453-1-1 0.453-1 1-1zM17 20c0.547 0 1 0.453 1 1s-0.453 1-1 1-1-0.453-1-1 0.453-1 1-1z"></path>
</symbol>
<symbol id="icon-home" viewBox="0 0 26 28">
<title>home</title>
<path d="M22 15.5v7.5c0 0.547-0.453 1-1 1h-6v-6h-4v6h-6c-0.547 0-1-0.453-1-1v-7.5c0-0.031 0.016-0.063 0.016-0.094l8.984-7.406 8.984 7.406c0.016 0.031 0.016 0.063 0.016 0.094zM25.484 14.422l-0.969 1.156c-0.078 0.094-0.203 0.156-0.328 0.172h-0.047c-0.125 0-0.234-0.031-0.328-0.109l-10.813-9.016-10.813 9.016c-0.109 0.078-0.234 0.125-0.375 0.109-0.125-0.016-0.25-0.078-0.328-0.172l-0.969-1.156c-0.172-0.203-0.141-0.531 0.063-0.703l11.234-9.359c0.656-0.547 1.719-0.547 2.375 0l3.813 3.187v-3.047c0-0.281 0.219-0.5 0.5-0.5h3c0.281 0 0.5 0.219 0.5 0.5v6.375l3.422 2.844c0.203 0.172 0.234 0.5 0.063 0.703z"></path>
</symbol>
<symbol id="icon-keyboard-o" viewBox="0 0 30 28">
<title>keyboard-o</title>
<path d="M6 18.25v1.5c0 0.141-0.109 0.25-0.25 0.25h-1.5c-0.141 0-0.25-0.109-0.25-0.25v-1.5c0-0.141 0.109-0.25 0.25-0.25h1.5c0.141 0 0.25 0.109 0.25 0.25zM8 14.25v1.5c0 0.141-0.109 0.25-0.25 0.25h-3.5c-0.141 0-0.25-0.109-0.25-0.25v-1.5c0-0.141 0.109-0.25 0.25-0.25h3.5c0.141 0 0.25 0.109 0.25 0.25zM6 10.25v1.5c0 0.141-0.109 0.25-0.25 0.25h-1.5c-0.141 0-0.25-0.109-0.25-0.25v-1.5c0-0.141 0.109-0.25 0.25-0.25h1.5c0.141 0 0.25 0.109 0.25 0.25zM22 18.25v1.5c0 0.141-0.109 0.25-0.25 0.25h-13.5c-0.141 0-0.25-0.109-0.25-0.25v-1.5c0-0.141 0.109-0.25 0.25-0.25h13.5c0.141 0 0.25 0.109 0.25 0.25zM12 14.25v1.5c0 0.141-0.109 0.25-0.25 0.25h-1.5c-0.141 0-0.25-0.109-0.25-0.25v-1.5c0-0.141 0.109-0.25 0.25-0.25h1.5c0.141 0 0.25 0.109 0.25 0.25zM10 10.25v1.5c0 0.141-0.109 0.25-0.25 0.25h-1.5c-0.141 0-0.25-0.109-0.25-0.25v-1.5c0-0.141 0.109-0.25 0.25-0.25h1.5c0.141 0 0.25 0.109 0.25 0.25zM16 14.25v1.5c0 0.141-0.109 0.25-0.25 0.25h-1.5c-0.141 0-0.25-0.109-0.25-0.25v-1.5c0-0.141 0.109-0.25 0.25-0.25h1.5c0.141 0 0.25 0.109 0.25 0.25zM14 10.25v1.5c0 0.141-0.109 0.25-0.25 0.25h-1.5c-0.141 0-0.25-0.109-0.25-0.25v-1.5c0-0.141 0.109-0.25 0.25-0.25h1.5c0.141 0 0.25 0.109 0.25 0.25zM20 14.25v1.5c0 0.141-0.109 0.25-0.25 0.25h-1.5c-0.141 0-0.25-0.109-0.25-0.25v-1.5c0-0.141 0.109-0.25 0.25-0.25h1.5c0.141 0 0.25 0.109 0.25 0.25zM26 18.25v1.5c0 0.141-0.109 0.25-0.25 0.25h-1.5c-0.141 0-0.25-0.109-0.25-0.25v-1.5c0-0.141 0.109-0.25 0.25-0.25h1.5c0.141 0 0.25 0.109 0.25 0.25zM18 10.25v1.5c0 0.141-0.109 0.25-0.25 0.25h-1.5c-0.141 0-0.25-0.109-0.25-0.25v-1.5c0-0.141 0.109-0.25 0.25-0.25h1.5c0.141 0 0.25 0.109 0.25 0.25zM22 10.25v1.5c0 0.141-0.109 0.25-0.25 0.25h-1.5c-0.141 0-0.25-0.109-0.25-0.25v-1.5c0-0.141 0.109-0.25 0.25-0.25h1.5c0.141 0 0.25 0.109 0.25 0.25zM26 10.25v5.5c0 0.141-0.109 0.25-0.25 0.25h-3.5c-0.141 0-0.25-0.109-0.25-0.25v-1.5c0-0.141 0.109-0.25 0.25-0.25h1.75v-3.75c0-0.141 0.109-0.25 0.25-0.25h1.5c0.141 0 0.25 0.109 0.25 0.25zM28 22v-14h-26v14h26zM30 8v14c0 1.109-0.891 2-2 2h-26c-1.109 0-2-0.891-2-2v-14c0-1.109 0.891-2 2-2h26c1.109 0 2 0.891 2 2z"></path>
</symbol>
<symbol id="icon-key1" viewBox="0 0 26 28">
<title>key1</title>
<path d="M13 8c0-1.656-1.344-3-3-3s-3 1.344-3 3c0 0.453 0.109 0.891 0.297 1.297-0.406-0.187-0.844-0.297-1.297-0.297-1.656 0-3 1.344-3 3s1.344 3 3 3 3-1.344 3-3c0-0.453-0.109-0.891-0.297-1.297 0.406 0.187 0.844 0.297 1.297 0.297 1.656 0 3-1.344 3-3zM26.297 19c0 0.359-1.437 1.797-1.797 1.797-0.406 0-1.672-1.469-2-1.797l-1.5 1.5 3.437 3.437c0.281 0.281 0.438 0.672 0.438 1.062 0 0.875-1 1.875-1.875 1.875-0.391 0-0.781-0.156-1.062-0.438l-10.484-10.484c-1.641 1.219-3.641 2.047-5.703 2.047-3.406 0-5.75-2.359-5.75-5.75 0-5.125 5.125-10.25 10.25-10.25 3.391 0 5.75 2.344 5.75 5.75 0 2.063-0.828 4.062-2.047 5.703l5.547 5.547 1.5-1.5c-0.328-0.328-1.797-1.594-1.797-2 0-0.359 1.437-1.797 1.797-1.797 0.125 0 0.266 0.063 0.359 0.156 0.578 0.578 4.937 4.688 4.937 5.141z"></path>
</symbol>
<symbol id="icon-user-o" viewBox="0 0 24 28">
<title>user-o</title>
<path d="M18.766 12.25c2.203 0.641 5.234 2.812 5.234 9.922 0 3.219-2.391 5.828-5.328 5.828h-13.344c-2.938 0-5.328-2.609-5.328-5.828 0-7.109 3.031-9.281 5.234-9.922-0.781-1.234-1.234-2.688-1.234-4.25 0-4.406 3.594-8 8-8s8 3.594 8 8c0 1.563-0.453 3.016-1.234 4.25zM12 2c-3.313 0-6 2.688-6 6s2.688 6 6 6 6-2.688 6-6-2.688-6-6-6zM18.672 26c1.828 0 3.328-1.703 3.328-3.828 0-4.922-1.656-8-4.75-8.156-1.406 1.234-3.234 1.984-5.25 1.984s-3.844-0.75-5.25-1.984c-3.094 0.156-4.75 3.234-4.75 8.156 0 2.125 1.5 3.828 3.328 3.828h13.344z"></path>
</symbol>
<symbol id="icon-user-circle-o" viewBox="0 0 28 28">
<title>user-circle-o</title>
<path d="M14 0c7.734 0 14 6.266 14 14 0 7.688-6.234 14-14 14-7.75 0-14-6.297-14-14 0-7.734 6.266-14 14-14zM23.672 21.109c1.453-2 2.328-4.453 2.328-7.109 0-6.609-5.391-12-12-12s-12 5.391-12 12c0 2.656 0.875 5.109 2.328 7.109 0.562-2.797 1.922-5.109 4.781-5.109 1.266 1.234 2.984 2 4.891 2s3.625-0.766 4.891-2c2.859 0 4.219 2.312 4.781 5.109zM20 11c0-3.313-2.688-6-6-6s-6 2.688-6 6 2.688 6 6 6 6-2.688 6-6z"></path>
</symbol>
<symbol id="icon-user-circle" viewBox="0 0 28 28">
<title>user-circle</title>
<path d="M23.797 20.922c-0.406-2.922-1.594-5.516-4.25-5.875-1.375 1.5-3.359 2.453-5.547 2.453s-4.172-0.953-5.547-2.453c-2.656 0.359-3.844 2.953-4.25 5.875 2.172 3.063 5.75 5.078 9.797 5.078s7.625-2.016 9.797-5.078zM20 10c0-3.313-2.688-6-6-6s-6 2.688-6 6 2.688 6 6 6 6-2.688 6-6zM28 14c0 7.703-6.25 14-14 14-7.734 0-14-6.281-14-14 0-7.734 6.266-14 14-14s14 6.266 14 14z"></path>
</symbol>
<symbol id="icon-user-times" viewBox="0 0 32 28">
<title>user-times</title>
<path d="M11 14c-3.313 0-6-2.688-6-6s2.688-6 6-6 6 2.688 6 6-2.688 6-6 6zM27.828 19l3.891 3.891c0.094 0.094 0.141 0.219 0.141 0.359 0 0.125-0.047 0.25-0.141 0.344l-2.125 2.125c-0.094 0.094-0.219 0.141-0.344 0.141-0.141 0-0.266-0.047-0.359-0.141l-3.891-3.891-3.891 3.891c-0.094 0.094-0.219 0.141-0.359 0.141-0.125 0-0.25-0.047-0.344-0.141l-2.125-2.125c-0.094-0.094-0.141-0.219-0.141-0.344 0-0.141 0.047-0.266 0.141-0.359l3.891-3.891-3.891-3.891c-0.094-0.094-0.141-0.219-0.141-0.359 0-0.125 0.047-0.25 0.141-0.344l2.125-2.125c0.094-0.094 0.219-0.141 0.344-0.141 0.141 0 0.266 0.047 0.359 0.141l3.891 3.891 3.891-3.891c0.094-0.094 0.219-0.141 0.359-0.141 0.125 0 0.25 0.047 0.344 0.141l2.125 2.125c0.094 0.094 0.141 0.219 0.141 0.344 0 0.141-0.047 0.266-0.141 0.359zM20.047 19l-2.828 2.828c-0.375 0.375-0.578 0.891-0.578 1.422 0 0.516 0.203 1.031 0.578 1.406l1.297 1.297c-0.219 0.031-0.453 0.047-0.688 0.047h-13.656c-2.5 0-4.172-1.5-4.172-4.047 0-3.531 0.828-8.953 5.406-8.953 0.25 0 0.422 0.109 0.609 0.266 1.5 1.188 3.031 1.906 4.984 1.906s3.484-0.719 4.984-1.906c0.187-0.156 0.359-0.266 0.609-0.266 0.297 0 0.594 0.031 0.891 0.094-0.516 0.5-0.844 0.906-0.844 1.656 0 0.531 0.203 1.047 0.578 1.422z"></path>
</symbol>
<symbol id="icon-group" viewBox="0 0 30 28">
<title>group</title>
<path d="M9.266 14c-1.625 0.047-3.094 0.75-4.141 2h-2.094c-1.563 0-3.031-0.75-3.031-2.484 0-1.266-0.047-5.516 1.937-5.516 0.328 0 1.953 1.328 4.062 1.328 0.719 0 1.406-0.125 2.078-0.359-0.047 0.344-0.078 0.688-0.078 1.031 0 1.422 0.453 2.828 1.266 4zM26 23.953c0 2.531-1.672 4.047-4.172 4.047h-13.656c-2.5 0-4.172-1.516-4.172-4.047 0-3.531 0.828-8.953 5.406-8.953 0.531 0 2.469 2.172 5.594 2.172s5.063-2.172 5.594-2.172c4.578 0 5.406 5.422 5.406 8.953zM10 4c0 2.203-1.797 4-4 4s-4-1.797-4-4 1.797-4 4-4 4 1.797 4 4zM21 10c0 3.313-2.688 6-6 6s-6-2.688-6-6 2.688-6 6-6 6 2.688 6 6zM30 13.516c0 1.734-1.469 2.484-3.031 2.484h-2.094c-1.047-1.25-2.516-1.953-4.141-2 0.812-1.172 1.266-2.578 1.266-4 0-0.344-0.031-0.688-0.078-1.031 0.672 0.234 1.359 0.359 2.078 0.359 2.109 0 3.734-1.328 4.062-1.328 1.984 0 1.937 4.25 1.937 5.516zM28 4c0 2.203-1.797 4-4 4s-4-1.797-4-4 1.797-4 4-4 4 1.797 4 4z"></path>
</symbol>
<symbol id="icon-user-plus" viewBox="0 0 32 28">
<title>user-plus</title>
<path d="M11 14c-3.313 0-6-2.688-6-6s2.688-6 6-6 6 2.688 6 6-2.688 6-6 6zM26 16h5.5c0.266 0 0.5 0.234 0.5 0.5v3c0 0.266-0.234 0.5-0.5 0.5h-5.5v5.5c0 0.266-0.234 0.5-0.5 0.5h-3c-0.266 0-0.5-0.234-0.5-0.5v-5.5h-5.5c-0.266 0-0.5-0.234-0.5-0.5v-3c0-0.266 0.234-0.5 0.5-0.5h5.5v-5.5c0-0.266 0.234-0.5 0.5-0.5h3c0.266 0 0.5 0.234 0.5 0.5v5.5zM14.5 19.5c0 1.094 0.906 2 2 2h4v3.719c-0.766 0.562-1.734 0.781-2.672 0.781h-13.656c-2.5 0-4.172-1.5-4.172-4.047 0-3.531 0.828-8.953 5.406-8.953 0.25 0 0.422 0.109 0.609 0.266 1.531 1.172 3.016 1.906 4.984 1.906s3.453-0.734 4.984-1.906c0.187-0.156 0.359-0.266 0.609-0.266 1.328 0 2.5 0.5 3.391 1.5h-3.484c-1.094 0-2 0.906-2 2v3z"></path>
</symbol>
<symbol id="icon-user" viewBox="0 0 20 28">
<title>user</title>
<path d="M20 21.859c0 2.281-1.5 4.141-3.328 4.141h-13.344c-1.828 0-3.328-1.859-3.328-4.141 0-4.109 1.016-8.859 5.109-8.859 1.266 1.234 2.984 2 4.891 2s3.625-0.766 4.891-2c4.094 0 5.109 4.75 5.109 8.859zM16 8c0 3.313-2.688 6-6 6s-6-2.688-6-6 2.688-6 6-6 6 2.688 6 6z"></path>
</symbol>
<symbol id="icon-envelope-open-o" viewBox="0 0 28 28">
<title>envelope-open-o</title>
<path d="M23.031 14.266l0.609 0.797c0.172 0.219 0.125 0.516-0.078 0.688-1.563 1.219-5.156 3.984-5.313 4.109-1.109 0.906-2.609 2.156-4.234 2.141h-0.031c-1.625 0-3.125-1.234-4.234-2.141-0.172-0.141-3.641-2.812-5.172-4-0.219-0.172-0.266-0.469-0.094-0.688l0.578-0.812c0.172-0.234 0.5-0.281 0.719-0.094 1.062 0.828 2.562 1.984 4.781 3.687 0.781 0.594 2.328 2.047 3.422 2.047h0.031c1.094 0 2.641-1.453 3.422-2.047 2.297-1.766 3.828-2.938 4.891-3.781 0.219-0.172 0.531-0.125 0.703 0.094zM26 25.5v-14.5c-1.563-1.453-1.328-1.328-8.563-6.922-0.781-0.609-2.328-2.078-3.422-2.078h-0.031c-1.094 0-2.641 1.469-3.422 2.078-7.234 5.594-7 5.469-8.563 6.922v14.5c0 0.266 0.234 0.5 0.5 0.5h23c0.266 0 0.5-0.234 0.5-0.5zM28 11v14.5c0 1.375-1.125 2.5-2.5 2.5h-23c-1.375 0-2.5-1.125-2.5-2.5v-14.5c0-0.562 0.234-1.094 0.641-1.469 3.203-2.969 6.891-5.547 9.109-7.375 1.094-0.906 2.609-2.156 4.234-2.156h0.031c1.625 0 3.141 1.25 4.234 2.156 2.063 1.703 5.984 4.469 9.109 7.375 0.406 0.375 0.641 0.906 0.641 1.469z"></path>
</symbol>
<symbol id="icon-paper-plane-o" viewBox="0 0 28 28">
<title>paper-plane-o</title>
<path d="M27.563 0.172c0.328 0.234 0.484 0.609 0.422 1l-4 24c-0.047 0.297-0.234 0.547-0.5 0.703-0.141 0.078-0.313 0.125-0.484 0.125-0.125 0-0.25-0.031-0.375-0.078l-8.234-3.359-4.656 5.109c-0.187 0.219-0.453 0.328-0.734 0.328-0.125 0-0.25-0.016-0.359-0.063-0.391-0.156-0.641-0.531-0.641-0.938v-7.063l-7.375-3.016c-0.359-0.141-0.594-0.469-0.625-0.859-0.031-0.375 0.172-0.734 0.5-0.922l26-15c0.328-0.203 0.75-0.187 1.062 0.031zM22.219 23.594l3.453-20.672-22.406 12.922 5.25 2.141 13.484-9.984-7.469 12.453z"></path>
</symbol>
<symbol id="icon-envelope-o" viewBox="0 0 28 28">
<title>envelope-o</title>
<path d="M26 23.5v-12c-0.328 0.375-0.688 0.719-1.078 1.031-2.234 1.719-4.484 3.469-6.656 5.281-1.172 0.984-2.625 2.188-4.25 2.188h-0.031c-1.625 0-3.078-1.203-4.25-2.188-2.172-1.813-4.422-3.563-6.656-5.281-0.391-0.313-0.75-0.656-1.078-1.031v12c0 0.266 0.234 0.5 0.5 0.5h23c0.266 0 0.5-0.234 0.5-0.5zM26 7.078c0-0.391 0.094-1.078-0.5-1.078h-23c-0.266 0-0.5 0.234-0.5 0.5 0 1.781 0.891 3.328 2.297 4.438 2.094 1.641 4.188 3.297 6.266 4.953 0.828 0.672 2.328 2.109 3.422 2.109h0.031c1.094 0 2.594-1.437 3.422-2.109 2.078-1.656 4.172-3.313 6.266-4.953 1.016-0.797 2.297-2.531 2.297-3.859zM28 6.5v17c0 1.375-1.125 2.5-2.5 2.5h-23c-1.375 0-2.5-1.125-2.5-2.5v-17c0-1.375 1.125-2.5 2.5-2.5h23c1.375 0 2.5 1.125 2.5 2.5z"></path>
</symbol>
<symbol id="icon-paper-plane" viewBox="0 0 28 28">
<title>paper-plane</title>
<path d="M27.563 0.172c0.328 0.234 0.484 0.609 0.422 1l-4 24c-0.047 0.297-0.234 0.547-0.5 0.703-0.141 0.078-0.313 0.125-0.484 0.125-0.125 0-0.25-0.031-0.375-0.078l-7.078-2.891-3.781 4.609c-0.187 0.234-0.469 0.359-0.766 0.359-0.109 0-0.234-0.016-0.344-0.063-0.391-0.141-0.656-0.516-0.656-0.938v-5.453l13.5-16.547-16.703 14.453-6.172-2.531c-0.359-0.141-0.594-0.469-0.625-0.859-0.016-0.375 0.172-0.734 0.5-0.922l26-15c0.156-0.094 0.328-0.141 0.5-0.141 0.203 0 0.406 0.063 0.562 0.172z"></path>
</symbol>
<symbol id="icon-envelope-open" viewBox="0 0 28 28">
<title>envelope-open</title>
<path d="M28 10.219v15.281c0 1.375-1.125 2.5-2.5 2.5h-23c-1.375 0-2.5-1.125-2.5-2.5v-15.281c0-0.141 0.063-0.281 0.172-0.375 1.641-1.437 1.656-1.609 9.812-7.562 0.984-0.719 2.719-2.281 4.016-2.281s3.047 1.578 4.016 2.281c8.156 5.953 8.172 6.125 9.812 7.562 0.109 0.094 0.172 0.234 0.172 0.375zM19.187 19.359c2.438-1.766 4.141-3 5.391-3.938 0.219-0.156 0.266-0.469 0.094-0.688l-0.594-0.812c-0.172-0.219-0.484-0.266-0.703-0.094-1.234 0.906-2.922 2.156-5.359 3.906-0.969 0.703-2.719 2.266-4.016 2.266s-3.047-1.563-4.016-2.266c-2.438-1.766-4.125-3-5.359-3.906-0.219-0.172-0.531-0.125-0.703 0.094l-0.594 0.812c-0.172 0.219-0.125 0.531 0.094 0.688 1.25 0.938 2.953 2.172 5.391 3.938 1.219 0.875 3.141 2.641 5.187 2.641 2.063 0 4.031-1.797 5.187-2.641z"></path>
</symbol>
<symbol id="icon-envelope" viewBox="0 0 28 28">
<title>envelope</title>
<path d="M28 11.094v12.406c0 1.375-1.125 2.5-2.5 2.5h-23c-1.375 0-2.5-1.125-2.5-2.5v-12.406c0.469 0.516 1 0.969 1.578 1.359 2.594 1.766 5.219 3.531 7.766 5.391 1.313 0.969 2.938 2.156 4.641 2.156h0.031c1.703 0 3.328-1.188 4.641-2.156 2.547-1.844 5.172-3.625 7.781-5.391 0.562-0.391 1.094-0.844 1.563-1.359zM28 6.5c0 1.75-1.297 3.328-2.672 4.281-2.438 1.687-4.891 3.375-7.313 5.078-1.016 0.703-2.734 2.141-4 2.141h-0.031c-1.266 0-2.984-1.437-4-2.141-2.422-1.703-4.875-3.391-7.297-5.078-1.109-0.75-2.688-2.516-2.688-3.938 0-1.531 0.828-2.844 2.5-2.844h23c1.359 0 2.5 1.125 2.5 2.5z"></path>
</symbol>
<symbol id="icon-dollar" viewBox="0 0 16 28">
<title>dollar</title>
<path d="M15.281 18.516c0 3.187-2.281 5.703-5.594 6.25v2.734c0 0.281-0.219 0.5-0.5 0.5h-2.109c-0.266 0-0.5-0.219-0.5-0.5v-2.734c-3.656-0.516-5.656-2.703-5.734-2.797-0.156-0.187-0.172-0.453-0.031-0.641l1.609-2.109c0.078-0.109 0.219-0.172 0.359-0.187s0.281 0.031 0.375 0.141c0.031 0.016 2.219 2.109 4.984 2.109 1.531 0 3.187-0.812 3.187-2.578 0-1.5-1.844-2.234-3.953-3.078-2.812-1.109-6.312-2.516-6.312-6.438 0-2.875 2.25-5.25 5.516-5.875v-2.812c0-0.281 0.234-0.5 0.5-0.5h2.109c0.281 0 0.5 0.219 0.5 0.5v2.75c3.172 0.359 4.859 2.078 4.922 2.141 0.156 0.172 0.187 0.406 0.078 0.594l-1.266 2.281c-0.078 0.141-0.203 0.234-0.359 0.25-0.156 0.031-0.297-0.016-0.422-0.109-0.016-0.016-1.906-1.687-4.25-1.687-1.984 0-3.359 0.984-3.359 2.406 0 1.656 1.906 2.391 4.125 3.25 2.875 1.109 6.125 2.375 6.125 6.141z"></path>
</symbol>
</defs>
</svg>
