<!-- Generated by IcoMoon.io -->
<svg version="1.1" xmlns="http://www.w3.org/2000/svg" width="24" height="24" viewBox="0 0 24 24">
<title>googlepodcasts</title>
<path fill="#4285f4" d="M10.5 7.636v8.727h3v-8.727zM3 11.182c-0 0.828-0.672 1.5-1.5 1.5s-1.5-0.672-1.5-1.5c0-0 0-0 0-0.001v0c0-0.828 0.672-1.5 1.5-1.5s1.5 0.672 1.5 1.5c0 0 0 0 0 0.001v-0z"></path>
<path fill="#4285f4" d="M3 12.818c-0 0.828-0.672 1.5-1.5 1.5s-1.5-0.672-1.5-1.5c0-0 0-0 0-0.001v0c0-0.828 0.672-1.5 1.5-1.5s1.5 0.672 1.5 1.5c0 0 0 0 0 0.001v-0z"></path>
<path fill="#4285f4" d="M0 11.182h3v1.636h-3v-1.636zM24 12.818c-0 0.828-0.672 1.5-1.5 1.5s-1.5-0.672-1.5-1.5c0-0 0-0 0-0.001v0c0-0.828 0.672-1.5 1.5-1.5s1.5 0.672 1.5 1.5c0 0 0 0 0 0.001v-0z"></path>
<path fill="#4285f4" d="M24 11.182c-0 0.828-0.672 1.5-1.5 1.5s-1.5-0.672-1.5-1.5c0-0 0-0 0-0.001v0c0-0.828 0.672-1.5 1.5-1.5s1.5 0.672 1.5 1.5c0 0 0 0 0 0.001v-0z"></path>
<path fill="#4285f4" d="M24 12.818h-3v-1.636h3v1.636zM8.182 16.091c-0 0.828-0.672 1.5-1.5 1.5s-1.5-0.672-1.5-1.5c0-0 0-0 0-0.001v0c0-0.828 0.672-1.5 1.5-1.5s1.5 0.672 1.5 1.5c0 0 0 0 0 0.001v-0z"></path>
<path fill="#4285f4" d="M8.182 17.727c-0 0.828-0.672 1.5-1.5 1.5s-1.5-0.672-1.5-1.5c0-0 0-0 0-0.001v0c0-0.828 0.672-1.5 1.5-1.5s1.5 0.672 1.5 1.5c0 0 0 0 0 0.001v-0z"></path>
<path fill="#4285f4" d="M5.182 16.091h3v1.636h-3v-1.636zM8.182 6.273c-0 0.828-0.672 1.5-1.5 1.5s-1.5-0.672-1.5-1.5c0-0 0-0 0-0.001v0c0-0.828 0.672-1.5 1.5-1.5s1.5 0.672 1.5 1.5c0 0 0 0 0 0.001v-0zM8.182 11.591c-0 0.828-0.672 1.5-1.5 1.5s-1.5-0.672-1.5-1.5c0-0 0-0 0-0.001v0c0-0.828 0.672-1.5 1.5-1.5s1.5 0.672 1.5 1.5c0 0 0 0 0 0.001v-0z"></path>
<path fill="#4285f4" d="M5.182 6.273h3v5.352h-3v-5.352zM18.818 7.909c-0 0.828-0.672 1.5-1.5 1.5s-1.5-0.672-1.5-1.5c0-0 0-0 0-0.001v0c0-0.828 0.672-1.5 1.5-1.5s1.5 0.672 1.5 1.5c0 0 0 0 0 0.001v-0z"></path>
<path fill="#4285f4" d="M18.818 6.273c-0 0.828-0.672 1.5-1.5 1.5s-1.5-0.672-1.5-1.5c0-0 0-0 0-0.001v0c0-0.828 0.672-1.5 1.5-1.5s1.5 0.672 1.5 1.5c0 0 0 0 0 0.001v-0z"></path>
<path fill="#4285f4" d="M18.818 7.909h-3v-1.636h3v1.636zM13.5 3.136c-0 0.828-0.672 1.5-1.5 1.5s-1.5-0.672-1.5-1.5c0-0 0-0 0-0.001v0c0-0.828 0.672-1.5 1.5-1.5s1.5 0.672 1.5 1.5c0 0 0 0 0 0.001v-0z"></path>
<path fill="#4285f4" d="M13.5 1.5c-0 0.828-0.672 1.5-1.5 1.5s-1.5-0.672-1.5-1.5c0-0 0-0 0-0.001v0c0-0.828 0.672-1.5 1.5-1.5s1.5 0.672 1.5 1.5c0 0 0 0 0 0.001v-0z"></path>
<path fill="#4285f4" d="M13.5 3.136h-3v-1.636h3v1.636zM13.5 22.5c-0 0.828-0.672 1.5-1.5 1.5s-1.5-0.672-1.5-1.5c0-0 0-0 0-0.001v0c0-0.828 0.672-1.5 1.5-1.5s1.5 0.672 1.5 1.5c0 0 0 0 0 0.001v-0z"></path>
<path fill="#4285f4" d="M13.5 20.864c-0 0.828-0.672 1.5-1.5 1.5s-1.5-0.672-1.5-1.5c0-0 0-0 0-0.001v0c0-0.828 0.672-1.5 1.5-1.5s1.5 0.672 1.5 1.5c0 0 0 0 0 0.001v-0z"></path>
<path fill="#4285f4" d="M13.5 22.5h-3v-1.636h3v1.636zM18.818 17.727c-0 0.828-0.672 1.5-1.5 1.5s-1.5-0.672-1.5-1.5c0-0 0-0 0-0.001v0c0-0.828 0.672-1.5 1.5-1.5s1.5 0.672 1.5 1.5c0 0 0 0 0 0.001v-0zM18.818 12.409c-0 0.828-0.672 1.5-1.5 1.5s-1.5-0.672-1.5-1.5c0-0 0-0 0-0.001v0c0-0.828 0.672-1.5 1.5-1.5s1.5 0.672 1.5 1.5c0 0 0 0 0 0.001v-0z"></path>
<path fill="#4285f4" d="M18.818 17.727h-3v-5.318h3v5.318zM13.5 7.636c-0 0.828-0.672 1.5-1.5 1.5s-1.5-0.672-1.5-1.5c0-0 0-0 0-0.001v0c0-0.828 0.672-1.5 1.5-1.5s1.5 0.672 1.5 1.5c0 0 0 0 0 0.001v-0zM13.5 16.364c-0 0.828-0.672 1.5-1.5 1.5s-1.5-0.672-1.5-1.5c0-0 0-0 0-0.001v0c0-0.828 0.672-1.5 1.5-1.5s1.5 0.672 1.5 1.5c0 0 0 0 0 0.001v-0z"></path>
</svg>
